<?xml version="1.0" encoding="utf-8" standalone="no"?>
<!DOCTYPE svg PUBLIC "-//W3C//DTD SVG 1.1//EN"
  "http://www.w3.org/Graphics/SVG/1.1/DTD/svg11.dtd">
<svg xmlns:xlink="http://www.w3.org/1999/xlink" width="576pt" height="576pt" viewBox="0 0 576 576" xmlns="http://www.w3.org/2000/svg" version="1.1">
 <metadata>
  <rdf:RDF xmlns:dc="http://purl.org/dc/elements/1.1/" xmlns:cc="http://creativecommons.org/ns#" xmlns:rdf="http://www.w3.org/1999/02/22-rdf-syntax-ns#">
   <cc:Work>
    <dc:type rdf:resource="http://purl.org/dc/dcmitype/StillImage"/>
    <dc:date>2022-12-21T13:30:14.176966</dc:date>
    <dc:format>image/svg+xml</dc:format>
    <dc:creator>
     <cc:Agent>
      <dc:title>Matplotlib v3.5.1, https://matplotlib.org/</dc:title>
     </cc:Agent>
    </dc:creator>
   </cc:Work>
  </rdf:RDF>
 </metadata>
 <defs>
  <style type="text/css">*{stroke-linejoin: round; stroke-linecap: butt}</style>
 </defs>
 <g id="figure_1">
  <g id="patch_1">
   <path d="M 0 576 
L 576 576 
L 576 0 
L 0 0 
L 0 576 
z
" style="fill: none"/>
  </g>
  <g id="axes_1">
   <g id="PolyCollection_1">
    <path d="M 407.763369 431.199165 
L 129.469024 119.771378 
L 126.225311 117.282389 
L 122.447927 115.717746 
L 118.394295 115.184075 
L 114.340663 115.717746 
L 110.563279 117.282389 
L 107.319566 119.771378 
L 104.830578 123.015091 
L 103.265934 126.792475 
L 102.732263 130.846107 
L 103.265934 134.899739 
L 165.372909 350.131072 
L 166.937553 353.908456 
L 169.426541 357.152169 
L 172.670254 359.641157 
L 388.857625 455.837611 
L 392.635009 457.402254 
L 396.688641 457.935925 
L 400.742273 457.402254 
L 404.519656 455.837611 
L 407.763369 453.348622 
L 410.252358 450.104909 
L 411.817001 446.327525 
L 412.350672 442.273893 
L 411.817001 438.220261 
L 410.252358 434.442878 
L 407.763369 431.199165 
z
" clip-path="url(#p94727b0bec)" style="fill: none; stroke: #1f77b4"/>
    <path d="M 464.174689 121.879834 
L 170.059916 327.992484 
L 165.734965 331.311135 
L 162.416314 335.636086 
L 160.330122 340.672597 
L 159.618561 346.07744 
L 160.330122 351.482283 
L 162.416314 356.518794 
L 165.734965 360.843745 
L 170.059916 364.162396 
L 386.247286 460.35885 
L 391.283798 462.445041 
L 396.688641 463.156602 
L 402.093483 462.445041 
L 407.129995 460.35885 
L 411.454946 457.040198 
L 414.773597 452.715248 
L 416.859788 447.678736 
L 487.134066 139.497184 
L 487.667737 135.443552 
L 487.134066 131.38992 
L 485.569422 127.612536 
L 483.080434 124.368823 
L 479.836721 121.879834 
L 476.059337 120.315191 
L 472.005705 119.78152 
L 467.952073 120.315191 
L 464.174689 121.879834 
z
" clip-path="url(#p94727b0bec)" style="fill: none; stroke: #ff7f0e"/>
    <path d="M 472.005705 114.560843 
L 118.394295 109.963398 
L 112.989452 110.674959 
L 107.952941 112.76115 
L 103.62799 116.079802 
L 100.309339 120.404752 
L 98.223147 125.441264 
L 97.511586 130.846107 
L 98.223147 136.250949 
L 100.309339 141.287461 
L 103.62799 145.612412 
L 378.23076 460.731775 
L 383.636948 464.880089 
L 389.932587 467.487828 
L 396.688641 468.377279 
L 403.444694 467.487828 
L 409.740334 464.880089 
L 415.146522 460.731775 
L 419.294836 455.325586 
L 421.902575 449.029947 
L 492.176853 140.848394 
L 492.888414 135.443552 
L 492.176853 130.038709 
L 490.090661 125.002197 
L 486.77201 120.677247 
L 482.447059 117.358595 
L 477.410548 115.272404 
L 472.005705 114.560843 
z
" clip-path="url(#p94727b0bec)" style="fill: none; stroke: #2ca02c"/>
    <path d="M 472.005705 109.340166 
L 118.394295 104.742721 
L 111.638242 105.632172 
L 105.342602 108.239911 
L 99.936414 112.388225 
L 95.7881 117.794414 
L 93.18036 124.090053 
L 92.290909 130.846107 
L 93.18036 137.60216 
L 155.287335 352.833493 
L 157.895075 359.129133 
L 162.043389 364.535321 
L 167.449577 368.683635 
L 173.745216 371.291375 
L 180.50127 372.180826 
L 187.257323 371.291375 
L 193.552963 368.683635 
L 485.057398 158.049747 
L 490.463586 153.901433 
L 494.6119 148.495245 
L 497.21964 142.199605 
L 498.109091 135.443552 
L 497.21964 128.687498 
L 494.6119 122.391859 
L 490.463586 116.985671 
L 485.057398 112.837356 
L 478.761758 110.229617 
L 472.005705 109.340166 
z
" clip-path="url(#p94727b0bec)" style="fill: none; stroke: #d62728"/>
   </g>
   <g id="PolyCollection_2">
    <path d="M 401.909318 442.273893 
L 401.731428 440.922683 
L 401.20988 439.663555 
L 400.380217 438.582317 
L 399.298979 437.752654 
L 398.039851 437.231106 
L 396.688641 437.053216 
L 395.33743 437.231106 
L 394.078302 437.752654 
L 392.997064 438.582317 
L 392.167402 439.663555 
L 391.645854 440.922683 
L 391.467964 442.273893 
L 391.645854 443.625104 
L 392.167402 444.884232 
L 392.997064 445.96547 
L 394.078302 446.795132 
L 395.33743 447.31668 
L 396.688641 447.494571 
L 398.039851 447.31668 
L 399.298979 446.795132 
L 400.380217 445.96547 
L 401.20988 444.884232 
L 401.731428 443.625104 
z
" clip-path="url(#p94727b0bec)"/>
    <path d="M 185.721947 346.07744 
L 185.544057 344.726229 
L 185.022509 343.467101 
L 184.192846 342.385864 
L 183.111608 341.556201 
L 181.852481 341.034653 
L 180.50127 340.856763 
L 179.150059 341.034653 
L 177.890931 341.556201 
L 176.809694 342.385864 
L 175.980031 343.467101 
L 175.458483 344.726229 
L 175.280593 346.07744 
L 175.458483 347.428651 
L 175.980031 348.687779 
L 176.809694 349.769016 
L 177.890931 350.598679 
L 179.150059 351.120227 
L 180.50127 351.298117 
L 181.852481 351.120227 
L 183.111608 350.598679 
L 184.192846 349.769016 
L 185.022509 348.687779 
L 185.544057 347.428651 
z
" clip-path="url(#p94727b0bec)"/>
    <path d="M 123.614972 130.846107 
L 123.437082 129.494896 
L 122.915534 128.235768 
L 122.085871 127.15453 
L 121.004634 126.324868 
L 119.745506 125.80332 
L 118.394295 125.625429 
L 117.043084 125.80332 
L 115.783956 126.324868 
L 114.702719 127.15453 
L 113.873056 128.235768 
L 113.351508 129.494896 
L 113.173618 130.846107 
L 113.351508 132.197317 
L 113.873056 133.456445 
L 114.702719 134.537683 
L 115.783956 135.367346 
L 117.043084 135.888894 
L 118.394295 136.066784 
L 119.745506 135.888894 
L 121.004634 135.367346 
L 122.085871 134.537683 
L 122.915534 133.456445 
L 123.437082 132.197317 
z
" clip-path="url(#p94727b0bec)"/>
    <path d="M 477.226382 135.443552 
L 477.048492 134.092341 
L 476.526944 132.833213 
L 475.697281 131.751975 
L 474.616044 130.922313 
L 473.356916 130.400765 
L 472.005705 130.222874 
L 470.654494 130.400765 
L 469.395366 130.922313 
L 468.314129 131.751975 
L 467.484466 132.833213 
L 466.962918 134.092341 
L 466.785028 135.443552 
L 466.962918 136.794762 
L 467.484466 138.05389 
L 468.314129 139.135128 
L 469.395366 139.964791 
L 470.654494 140.486339 
L 472.005705 140.664229 
L 473.356916 140.486339 
L 474.616044 139.964791 
L 475.697281 139.135128 
L 476.526944 138.05389 
L 477.048492 136.794762 
z
" clip-path="url(#p94727b0bec)"/>
   </g>
   <g id="text_1">
    <g id="patch_2">
     <path d="M 402.909318 451.112956 
L 423.190568 451.112956 
L 423.190568 433.434831 
L 402.909318 433.434831 
z
" style="fill: #ffffff; fill-opacity: 0.35; stroke: #ffffff; stroke-opacity: 0.35; stroke-linejoin: miter"/>
    </g>
    <!-- v1 -->
    <g transform="translate(406.909318 445.033268)scale(0.1 -0.1)">
     <defs>
      <path id="DejaVuSans-76" d="M 191 3500 
L 800 3500 
L 1894 563 
L 2988 3500 
L 3597 3500 
L 2284 0 
L 1503 0 
L 191 3500 
z
" transform="scale(0.015625)"/>
      <path id="DejaVuSans-31" d="M 794 531 
L 1825 531 
L 1825 4091 
L 703 3866 
L 703 4441 
L 1819 4666 
L 2450 4666 
L 2450 531 
L 3481 531 
L 3481 0 
L 794 0 
L 794 531 
z
" transform="scale(0.015625)"/>
     </defs>
     <use xlink:href="#DejaVuSans-76"/>
     <use xlink:href="#DejaVuSans-31" x="59.179688"/>
    </g>
   </g>
   <g id="text_2">
    <g id="patch_3">
     <path d="M 186.721947 354.916502 
L 207.003197 354.916502 
L 207.003197 337.238377 
L 186.721947 337.238377 
z
" style="fill: #ffffff; fill-opacity: 0.35; stroke: #ffffff; stroke-opacity: 0.35; stroke-linejoin: miter"/>
    </g>
    <!-- v2 -->
    <g transform="translate(190.721947 348.836815)scale(0.1 -0.1)">
     <defs>
      <path id="DejaVuSans-32" d="M 1228 531 
L 3431 531 
L 3431 0 
L 469 0 
L 469 531 
Q 828 903 1448 1529 
Q 2069 2156 2228 2338 
Q 2531 2678 2651 2914 
Q 2772 3150 2772 3378 
Q 2772 3750 2511 3984 
Q 2250 4219 1831 4219 
Q 1534 4219 1204 4116 
Q 875 4013 500 3803 
L 500 4441 
Q 881 4594 1212 4672 
Q 1544 4750 1819 4750 
Q 2544 4750 2975 4387 
Q 3406 4025 3406 3419 
Q 3406 3131 3298 2873 
Q 3191 2616 2906 2266 
Q 2828 2175 2409 1742 
Q 1991 1309 1228 531 
z
" transform="scale(0.015625)"/>
     </defs>
     <use xlink:href="#DejaVuSans-76"/>
     <use xlink:href="#DejaVuSans-32" x="59.179688"/>
    </g>
   </g>
   <g id="text_3">
    <g id="patch_4">
     <path d="M 124.614972 139.685169 
L 144.896222 139.685169 
L 144.896222 122.007044 
L 124.614972 122.007044 
z
" style="fill: #ffffff; fill-opacity: 0.35; stroke: #ffffff; stroke-opacity: 0.35; stroke-linejoin: miter"/>
    </g>
    <!-- v3 -->
    <g transform="translate(128.614972 133.605482)scale(0.1 -0.1)">
     <defs>
      <path id="DejaVuSans-33" d="M 2597 2516 
Q 3050 2419 3304 2112 
Q 3559 1806 3559 1356 
Q 3559 666 3084 287 
Q 2609 -91 1734 -91 
Q 1441 -91 1130 -33 
Q 819 25 488 141 
L 488 750 
Q 750 597 1062 519 
Q 1375 441 1716 441 
Q 2309 441 2620 675 
Q 2931 909 2931 1356 
Q 2931 1769 2642 2001 
Q 2353 2234 1838 2234 
L 1294 2234 
L 1294 2753 
L 1863 2753 
Q 2328 2753 2575 2939 
Q 2822 3125 2822 3475 
Q 2822 3834 2567 4026 
Q 2313 4219 1838 4219 
Q 1578 4219 1281 4162 
Q 984 4106 628 3988 
L 628 4550 
Q 988 4650 1302 4700 
Q 1616 4750 1894 4750 
Q 2613 4750 3031 4423 
Q 3450 4097 3450 3541 
Q 3450 3153 3228 2886 
Q 3006 2619 2597 2516 
z
" transform="scale(0.015625)"/>
     </defs>
     <use xlink:href="#DejaVuSans-76"/>
     <use xlink:href="#DejaVuSans-33" x="59.179688"/>
    </g>
   </g>
   <g id="text_4">
    <g id="patch_5">
     <path d="M 478.226382 144.282614 
L 498.507632 144.282614 
L 498.507632 126.604489 
L 478.226382 126.604489 
z
" style="fill: #ffffff; fill-opacity: 0.35; stroke: #ffffff; stroke-opacity: 0.35; stroke-linejoin: miter"/>
    </g>
    <!-- v4 -->
    <g transform="translate(482.226382 138.202927)scale(0.1 -0.1)">
     <defs>
      <path id="DejaVuSans-34" d="M 2419 4116 
L 825 1625 
L 2419 1625 
L 2419 4116 
z
M 2253 4666 
L 3047 4666 
L 3047 1625 
L 3713 1625 
L 3713 1100 
L 3047 1100 
L 3047 0 
L 2419 0 
L 2419 1100 
L 313 1100 
L 313 1709 
L 2253 4666 
z
" transform="scale(0.015625)"/>
     </defs>
     <use xlink:href="#DejaVuSans-76"/>
     <use xlink:href="#DejaVuSans-34" x="59.179688"/>
    </g>
   </g>
  </g>
 </g>
 <defs>
  <clipPath id="p94727b0bec">
   <rect x="72" y="69.12" width="446.4" height="434.88"/>
  </clipPath>
 </defs>
</svg>
