<?xml version="1.0" encoding="utf-8" standalone="no"?>
<!DOCTYPE svg PUBLIC "-//W3C//DTD SVG 1.1//EN"
  "http://www.w3.org/Graphics/SVG/1.1/DTD/svg11.dtd">
<svg xmlns:xlink="http://www.w3.org/1999/xlink" width="576pt" height="576pt" viewBox="0 0 576 576" xmlns="http://www.w3.org/2000/svg" version="1.1">
 <metadata>
  <rdf:RDF xmlns:dc="http://purl.org/dc/elements/1.1/" xmlns:cc="http://creativecommons.org/ns#" xmlns:rdf="http://www.w3.org/1999/02/22-rdf-syntax-ns#">
   <cc:Work>
    <dc:type rdf:resource="http://purl.org/dc/dcmitype/StillImage"/>
    <dc:date>2022-12-20T16:59:21.550133</dc:date>
    <dc:format>image/svg+xml</dc:format>
    <dc:creator>
     <cc:Agent>
      <dc:title>Matplotlib v3.5.1, https://matplotlib.org/</dc:title>
     </cc:Agent>
    </dc:creator>
   </cc:Work>
  </rdf:RDF>
 </metadata>
 <defs>
  <style type="text/css">*{stroke-linejoin: round; stroke-linecap: butt}</style>
 </defs>
 <g id="figure_1">
  <g id="patch_1">
   <path d="M 0 576 
L 576 576 
L 576 0 
L 0 0 
L 0 576 
z
" style="fill: none"/>
  </g>
  <g id="axes_1">
   <g id="PolyCollection_1">
    <path d="M 296.790743 472.327961 
L 480.147261 255.955809 
L 482.355076 253.078529 
L 483.742967 249.727864 
L 484.216351 246.132158 
L 483.742967 242.536453 
L 482.355076 239.185788 
L 480.147261 236.308508 
L 350.785581 117.228742 
L 347.9083 115.020927 
L 344.557636 113.633036 
L 340.96193 113.159652 
L 337.366225 113.633036 
L 334.01556 115.020927 
L 331.13828 117.228742 
L 328.930464 120.106022 
L 327.542574 123.456687 
L 273.547736 458.908604 
L 273.074352 462.50431 
L 273.547736 466.100016 
L 274.935626 469.45068 
L 277.143442 472.327961 
L 280.020722 474.535776 
L 283.371387 475.923667 
L 286.967092 476.39705 
L 290.562798 475.923667 
L 293.913462 474.535776 
L 296.790743 472.327961 
z
" clip-path="url(#p74430fd96c)" style="fill: none; stroke: #1f77b4"/>
    <path d="M 160.087831 161.373172 
L 465.529336 264.024634 
L 470.323611 264.655812 
L 475.117885 264.024634 
L 479.585437 262.174113 
L 483.421812 259.230359 
L 486.365565 255.393985 
L 488.216086 250.926433 
L 488.847264 246.132158 
L 488.216086 241.337884 
L 486.365565 236.870332 
L 483.421812 233.033957 
L 354.060131 113.954191 
L 350.223757 111.010438 
L 345.756205 109.159917 
L 340.96193 108.528739 
L 336.167656 109.159917 
L 160.087831 134.534459 
L 156.737167 135.92235 
L 153.859886 138.130165 
L 151.652071 141.007446 
L 150.26418 144.35811 
L 149.790797 147.953816 
L 150.26418 151.549522 
L 151.652071 154.900186 
L 153.859886 157.777467 
L 156.737167 159.985282 
L 160.087831 161.373172 
z
" clip-path="url(#p74430fd96c)" style="fill: none; stroke: #ff7f0e"/>
    <path d="M 363.327525 121.05955 
L 361.014374 115.475109 
L 357.334682 110.679641 
L 352.539214 106.999949 
L 346.954773 104.686798 
L 340.96193 103.897826 
L 252.494973 101.353863 
L 248.899267 101.827247 
L 245.548603 103.215137 
L 242.671322 105.422952 
L 240.463507 108.300233 
L 239.075617 111.650897 
L 238.602233 115.246603 
L 239.075617 118.842309 
L 240.463507 122.192973 
L 385.708624 442.03762 
L 387.916439 444.914901 
L 390.79372 447.122716 
L 394.144384 448.510607 
L 397.74009 448.98399 
L 401.335796 448.510607 
L 404.68646 447.122716 
L 407.563741 444.914901 
L 409.771556 442.03762 
L 411.159446 438.686956 
L 411.63283 435.09125 
L 411.159446 431.495545 
L 363.327525 121.05955 
z
" clip-path="url(#p74430fd96c)" style="fill: none; stroke: #2ca02c"/>
    <path d="M 127.02276 362.676591 
L 426.544443 153.80637 
L 429.421723 151.598555 
L 431.629538 148.721274 
L 433.017429 145.37061 
L 433.490813 141.774904 
L 433.017429 138.179198 
L 431.629538 134.828534 
L 429.421723 131.951253 
L 426.544443 129.743438 
L 423.193778 128.355547 
L 257.289248 97.354128 
L 252.494973 96.72295 
L 247.700699 97.354128 
L 243.233146 99.204649 
L 239.396772 102.148402 
L 236.453019 105.984776 
L 108.044924 343.698755 
L 106.657033 347.049419 
L 106.183649 350.645125 
L 106.657033 354.240831 
L 108.044924 357.591495 
L 110.252739 360.468776 
L 113.130019 362.676591 
L 116.480684 364.064481 
L 120.076389 364.537865 
L 123.672095 364.064481 
L 127.02276 362.676591 
z
" clip-path="url(#p74430fd96c)" style="fill: none; stroke: #d62728"/>
    <path d="M 473.117084 337.779452 
L 120.076389 332.121471 
L 115.282115 332.752649 
L 110.814563 334.60317 
L 106.978188 337.546924 
L 104.034435 341.383298 
L 102.183914 345.85085 
L 101.552736 350.645125 
L 102.183914 355.439399 
L 104.034435 359.906952 
L 106.978188 363.743326 
L 110.814563 366.687079 
L 277.705266 478.546265 
L 282.172818 480.396786 
L 286.967092 481.027964 
L 291.761367 480.396786 
L 296.228919 478.546265 
L 480.063454 363.703658 
L 482.940735 361.495843 
L 485.14855 358.618562 
L 486.53644 355.267898 
L 487.009824 351.672192 
L 486.53644 348.076486 
L 485.14855 344.725822 
L 482.940735 341.848541 
L 480.063454 339.640726 
L 476.71279 338.252835 
L 473.117084 337.779452 
z
" clip-path="url(#p74430fd96c)" style="fill: none; stroke: #9467bd"/>
    <path d="M 482.378911 335.630237 
L 172.945364 131.911861 
L 168.477811 130.061341 
L 163.683537 129.430162 
L 158.889263 130.061341 
L 154.42171 131.911861 
L 150.585336 134.855615 
L 147.641582 138.691989 
L 145.791062 143.159542 
L 145.159883 147.953816 
L 145.791062 152.74809 
L 264.601498 468.497153 
L 266.914649 474.081594 
L 270.594341 478.877061 
L 275.389809 482.556753 
L 280.974249 484.869904 
L 286.967092 485.658877 
L 292.959935 484.869904 
L 298.544376 482.556753 
L 482.378911 367.714146 
L 486.215285 364.770393 
L 489.159039 360.934019 
L 491.009559 356.466466 
L 491.640738 351.672192 
L 491.009559 346.877917 
L 489.159039 342.410365 
L 486.215285 338.573991 
L 482.378911 335.630237 
z
" clip-path="url(#p74430fd96c)" style="fill: none; stroke: #8c564b"/>
    <path d="M 177.413173 422.066603 
L 176.93979 425.662309 
L 177.413173 429.258015 
L 178.801064 432.608679 
L 181.008879 435.48596 
L 183.88616 437.693775 
L 273.074352 486.567242 
L 279.775681 489.343023 
L 286.967092 490.289791 
L 294.158504 489.343023 
L 300.859833 486.567242 
L 306.614394 482.151612 
L 311.030024 476.39705 
L 313.805805 469.695722 
L 314.752573 462.50431 
L 275.64954 115.246603 
L 274.860567 109.25376 
L 272.547416 103.66932 
L 268.867725 98.873852 
L 264.072257 95.19416 
L 258.487816 92.881009 
L 252.494973 92.092036 
L 246.50213 92.881009 
L 240.91769 95.19416 
L 236.122222 98.873852 
L 232.44253 103.66932 
L 230.129379 109.25376 
L 177.413173 422.066603 
z
" clip-path="url(#p74430fd96c)" style="fill: none; stroke: #e377c2"/>
    <path d="M 470.323611 222.977591 
L 120.855273 232.312026 
L 117.259567 232.78541 
L 113.908902 234.173301 
L 111.031622 236.381116 
L 108.823807 239.258396 
L 107.435916 242.609061 
L 106.962532 246.204766 
L 107.435916 249.800472 
L 108.823807 253.151137 
L 111.031622 256.028417 
L 113.908902 258.236232 
L 388.478263 451.133205 
L 392.945815 452.983726 
L 397.74009 453.614904 
L 402.534364 452.983726 
L 407.001917 451.133205 
L 410.838291 448.189451 
L 413.782044 444.353077 
L 415.632565 439.885525 
L 492.689205 252.125001 
L 493.478178 246.132158 
L 492.689205 240.139316 
L 490.376054 234.554875 
L 486.696362 229.759407 
L 481.900894 226.079715 
L 476.316453 223.766564 
L 470.323611 222.977591 
z
" clip-path="url(#p74430fd96c)" style="fill: none; stroke: #7f7f7f"/>
    <path d="M 120.855273 264.72842 
L 470.323611 273.917639 
L 477.515022 272.970872 
L 484.216351 270.19509 
L 489.970912 265.77946 
L 494.386542 260.024899 
L 497.162324 253.32357 
L 498.109091 246.132158 
L 497.162324 238.940747 
L 494.386542 232.239418 
L 489.970912 226.484857 
L 484.216351 222.069227 
L 477.515022 219.293445 
L 169.67638 125.588222 
L 163.683537 124.799249 
L 157.690694 125.588222 
L 152.106253 127.901373 
L 147.310786 131.581065 
L 143.631094 136.376532 
L 141.317943 141.960973 
L 102.962797 241.410492 
L 102.331619 246.204766 
L 102.962797 250.999041 
L 104.813318 255.466593 
L 107.757072 259.302968 
L 111.593446 262.246721 
L 116.060998 264.097242 
L 120.855273 264.72842 
z
" clip-path="url(#p74430fd96c)" style="fill: none; stroke: #bcbd22"/>
    <path d="M 97.700706 246.204766 
L 96.921822 350.645125 
L 97.710795 356.637968 
L 100.023946 362.222408 
L 103.703638 367.017876 
L 108.499106 370.697568 
L 114.083547 373.010719 
L 120.076389 373.799692 
L 126.069232 373.010719 
L 131.653673 370.697568 
L 136.449141 367.017876 
L 140.128833 362.222408 
L 276.557905 129.139343 
L 279.333686 122.438015 
L 280.280454 115.246603 
L 279.333686 108.055192 
L 276.557905 101.353863 
L 272.142275 95.599302 
L 266.387713 91.183671 
L 259.686385 88.40789 
L 252.494973 87.461123 
L 245.303562 88.40789 
L 238.602233 91.183671 
L 232.847672 95.599302 
L 104.482521 229.832015 
L 100.802829 234.627483 
L 98.489678 240.211924 
L 97.700706 246.204766 
z
" clip-path="url(#p74430fd96c)" style="fill: none; stroke: #17becf"/>
    <path d="M 106.962532 270.267698 
L 386.162806 455.143694 
L 391.747247 457.456845 
L 397.74009 458.245817 
L 403.732933 457.456845 
L 409.317373 455.143694 
L 414.112841 451.464002 
L 417.792533 446.668534 
L 420.105684 441.084093 
L 420.894657 435.09125 
L 420.105684 429.098407 
L 417.792533 423.513967 
L 280.568394 99.038406 
L 275.416825 92.324751 
L 268.70317 87.173183 
L 260.884953 83.934771 
L 252.494973 82.830209 
L 244.104993 83.934771 
L 236.286776 87.173183 
L 229.573121 92.324751 
L 101.207971 226.557465 
L 96.792341 232.312026 
L 94.01656 239.013355 
L 93.069792 246.204766 
L 94.01656 253.396178 
L 96.792341 260.097507 
L 101.207971 265.852068 
L 106.962532 270.267698 
z
" clip-path="url(#p74430fd96c)" style="fill: none; stroke: #1f77b4"/>
    <path d="M 120.076389 378.430605 
L 473.117084 374.826759 
L 479.109927 374.037786 
L 484.694367 371.724635 
L 489.489835 368.044943 
L 493.169527 363.249475 
L 495.482678 357.665035 
L 496.271651 351.672192 
L 495.482678 345.679349 
L 493.169527 340.094908 
L 489.489835 335.29944 
L 484.694367 331.619749 
L 177.576277 123.890884 
L 170.874948 121.115103 
L 163.683537 120.168336 
L 156.492125 121.115103 
L 149.790797 123.890884 
L 144.036235 128.306514 
L 139.620605 134.061076 
L 136.844824 140.762404 
L 93.237676 343.453713 
L 92.290909 350.645125 
L 93.237676 357.836536 
L 96.013458 364.537865 
L 100.429088 370.292426 
L 106.183649 374.708057 
L 112.884978 377.483838 
L 120.076389 378.430605 
z
" clip-path="url(#p74430fd96c)" style="fill: none; stroke: #ff7f0e"/>
   </g>
   <g id="PolyCollection_2">
    <path d="M 345.592844 127.052393 
L 345.435049 125.853824 
L 344.972419 124.736936 
L 344.236481 123.777842 
L 343.277387 123.041904 
L 342.160499 122.579274 
L 340.96193 122.421479 
L 339.763362 122.579274 
L 338.646474 123.041904 
L 337.68738 123.777842 
L 336.951442 124.736936 
L 336.488812 125.853824 
L 336.331017 127.052393 
L 336.488812 128.250961 
L 336.951442 129.367849 
L 337.68738 130.326943 
L 338.646474 131.062881 
L 339.763362 131.525511 
L 340.96193 131.683306 
L 342.160499 131.525511 
L 343.277387 131.062881 
L 344.236481 130.326943 
L 344.972419 129.367849 
L 345.435049 128.250961 
z
" clip-path="url(#p74430fd96c)"/>
    <path d="M 291.598006 462.50431 
L 291.440211 461.305742 
L 290.977581 460.188853 
L 290.241643 459.22976 
L 289.282549 458.493822 
L 288.165661 458.031191 
L 286.967092 457.873397 
L 285.768524 458.031191 
L 284.651636 458.493822 
L 283.692542 459.22976 
L 282.956604 460.188853 
L 282.493973 461.305742 
L 282.336179 462.50431 
L 282.493973 463.702879 
L 282.956604 464.819767 
L 283.692542 465.77886 
L 284.651636 466.514799 
L 285.768524 466.977429 
L 286.967092 467.135224 
L 288.165661 466.977429 
L 289.282549 466.514799 
L 290.241643 465.77886 
L 290.977581 464.819767 
L 291.440211 463.702879 
z
" clip-path="url(#p74430fd96c)"/>
    <path d="M 474.954524 246.132158 
L 474.796729 244.93359 
L 474.334099 243.816702 
L 473.598161 242.857608 
L 472.639067 242.12167 
L 471.522179 241.65904 
L 470.323611 241.501245 
L 469.125042 241.65904 
L 468.008154 242.12167 
L 467.04906 242.857608 
L 466.313122 243.816702 
L 465.850492 244.93359 
L 465.692697 246.132158 
L 465.850492 247.330727 
L 466.313122 248.447615 
L 467.04906 249.406709 
L 468.008154 250.142647 
L 469.125042 250.605277 
L 470.323611 250.763072 
L 471.522179 250.605277 
L 472.639067 250.142647 
L 473.598161 249.406709 
L 474.334099 248.447615 
L 474.796729 247.330727 
z
" clip-path="url(#p74430fd96c)"/>
    <path d="M 168.31445 147.953816 
L 168.156656 146.755247 
L 167.694026 145.638359 
L 166.958087 144.679266 
L 165.998994 143.943327 
L 164.882106 143.480697 
L 163.683537 143.322903 
L 162.484968 143.480697 
L 161.36808 143.943327 
L 160.408987 144.679266 
L 159.673048 145.638359 
L 159.210418 146.755247 
L 159.052624 147.953816 
L 159.210418 149.152385 
L 159.673048 150.269273 
L 160.408987 151.228366 
L 161.36808 151.964305 
L 162.484968 152.426935 
L 163.683537 152.584729 
L 164.882106 152.426935 
L 165.998994 151.964305 
L 166.958087 151.228366 
L 167.694026 150.269273 
L 168.156656 149.152385 
z
" clip-path="url(#p74430fd96c)"/>
    <path d="M 257.125887 115.246603 
L 256.968092 114.048035 
L 256.505462 112.931147 
L 255.769523 111.972053 
L 254.81043 111.236115 
L 253.693542 110.773484 
L 252.494973 110.61569 
L 251.296405 110.773484 
L 250.179517 111.236115 
L 249.220423 111.972053 
L 248.484485 112.931147 
L 248.021854 114.048035 
L 247.86406 115.246603 
L 248.021854 116.445172 
L 248.484485 117.56206 
L 249.220423 118.521153 
L 250.179517 119.257092 
L 251.296405 119.719722 
L 252.494973 119.877517 
L 253.693542 119.719722 
L 254.81043 119.257092 
L 255.769523 118.521153 
L 256.505462 117.56206 
L 256.968092 116.445172 
z
" clip-path="url(#p74430fd96c)"/>
    <path d="M 402.371003 435.09125 
L 402.213209 433.892682 
L 401.750578 432.775794 
L 401.01464 431.8167 
L 400.055546 431.080762 
L 398.938658 430.618131 
L 397.74009 430.460337 
L 396.541521 430.618131 
L 395.424633 431.080762 
L 394.46554 431.8167 
L 393.729601 432.775794 
L 393.266971 433.892682 
L 393.109176 435.09125 
L 393.266971 436.289819 
L 393.729601 437.406707 
L 394.46554 438.365801 
L 395.424633 439.101739 
L 396.541521 439.564369 
L 397.74009 439.722164 
L 398.938658 439.564369 
L 400.055546 439.101739 
L 401.01464 438.365801 
L 401.750578 437.406707 
L 402.213209 436.289819 
z
" clip-path="url(#p74430fd96c)"/>
    <path d="M 424.228986 141.774904 
L 424.071191 140.576335 
L 423.608561 139.459447 
L 422.872623 138.500354 
L 421.913529 137.764415 
L 420.796641 137.301785 
L 419.598073 137.14399 
L 418.399504 137.301785 
L 417.282616 137.764415 
L 416.323522 138.500354 
L 415.587584 139.459447 
L 415.124954 140.576335 
L 414.967159 141.774904 
L 415.124954 142.973472 
L 415.587584 144.09036 
L 416.323522 145.049454 
L 417.282616 145.785392 
L 418.399504 146.248023 
L 419.598073 146.405817 
L 420.796641 146.248023 
L 421.913529 145.785392 
L 422.872623 145.049454 
L 423.608561 144.09036 
L 424.071191 142.973472 
z
" clip-path="url(#p74430fd96c)"/>
    <path d="M 124.707303 350.645125 
L 124.549508 349.446556 
L 124.086878 348.329668 
L 123.35094 347.370575 
L 122.391846 346.634636 
L 121.274958 346.172006 
L 120.076389 346.014211 
L 118.877821 346.172006 
L 117.760933 346.634636 
L 116.801839 347.370575 
L 116.065901 348.329668 
L 115.603271 349.446556 
L 115.445476 350.645125 
L 115.603271 351.843693 
L 116.065901 352.960581 
L 116.801839 353.919675 
L 117.760933 354.655613 
L 118.877821 355.118244 
L 120.076389 355.276038 
L 121.274958 355.118244 
L 122.391846 354.655613 
L 123.35094 353.919675 
L 124.086878 352.960581 
L 124.549508 351.843693 
z
" clip-path="url(#p74430fd96c)"/>
    <path d="M 477.747997 351.672192 
L 477.590203 350.473623 
L 477.127573 349.356735 
L 476.391634 348.397642 
L 475.432541 347.661703 
L 474.315653 347.199073 
L 473.117084 347.041278 
L 471.918515 347.199073 
L 470.801627 347.661703 
L 469.842534 348.397642 
L 469.106595 349.356735 
L 468.643965 350.473623 
L 468.486171 351.672192 
L 468.643965 352.87076 
L 469.106595 353.987648 
L 469.842534 354.946742 
L 470.801627 355.68268 
L 471.918515 356.145311 
L 473.117084 356.303105 
L 474.315653 356.145311 
L 475.432541 355.68268 
L 476.391634 354.946742 
L 477.127573 353.987648 
L 477.590203 352.87076 
z
" clip-path="url(#p74430fd96c)"/>
    <path d="M 195.463443 425.662309 
L 195.305649 424.463741 
L 194.843018 423.346852 
L 194.10708 422.387759 
L 193.147987 421.65182 
L 192.031098 421.18919 
L 190.83253 421.031396 
L 189.633961 421.18919 
L 188.517073 421.65182 
L 187.55798 422.387759 
L 186.822041 423.346852 
L 186.359411 424.463741 
L 186.201616 425.662309 
L 186.359411 426.860878 
L 186.822041 427.977766 
L 187.55798 428.936859 
L 188.517073 429.672798 
L 189.633961 430.135428 
L 190.83253 430.293223 
L 192.031098 430.135428 
L 193.147987 429.672798 
L 194.10708 428.936859 
L 194.843018 427.977766 
L 195.305649 426.860878 
z
" clip-path="url(#p74430fd96c)"/>
    <path d="M 125.486186 246.204766 
L 125.328391 245.006198 
L 124.865761 243.88931 
L 124.129823 242.930216 
L 123.170729 242.194278 
L 122.053841 241.731648 
L 120.855273 241.573853 
L 119.656704 241.731648 
L 118.539816 242.194278 
L 117.580722 242.930216 
L 116.844784 243.88931 
L 116.382154 245.006198 
L 116.224359 246.204766 
L 116.382154 247.403335 
L 116.844784 248.520223 
L 117.580722 249.479317 
L 118.539816 250.215255 
L 119.656704 250.677885 
L 120.855273 250.83568 
L 122.053841 250.677885 
L 123.170729 250.215255 
L 124.129823 249.479317 
L 124.865761 248.520223 
L 125.328391 247.403335 
z
" clip-path="url(#p74430fd96c)"/>
   </g>
   <g id="text_1">
    <g id="patch_2">
     <path d="M 346.592844 135.891455 
L 443.885031 135.891455 
L 443.885031 118.21333 
L 346.592844 118.21333 
z
" style="fill: #ffffff; fill-opacity: 0.35; stroke: #ffffff; stroke-opacity: 0.35; stroke-linejoin: miter"/>
    </g>
    <!-- SDG1: No Poverty -->
    <g transform="translate(350.592844 129.811768)scale(0.1 -0.1)">
     <defs>
      <path id="DejaVuSans-53" d="M 3425 4513 
L 3425 3897 
Q 3066 4069 2747 4153 
Q 2428 4238 2131 4238 
Q 1616 4238 1336 4038 
Q 1056 3838 1056 3469 
Q 1056 3159 1242 3001 
Q 1428 2844 1947 2747 
L 2328 2669 
Q 3034 2534 3370 2195 
Q 3706 1856 3706 1288 
Q 3706 609 3251 259 
Q 2797 -91 1919 -91 
Q 1588 -91 1214 -16 
Q 841 59 441 206 
L 441 856 
Q 825 641 1194 531 
Q 1563 422 1919 422 
Q 2459 422 2753 634 
Q 3047 847 3047 1241 
Q 3047 1584 2836 1778 
Q 2625 1972 2144 2069 
L 1759 2144 
Q 1053 2284 737 2584 
Q 422 2884 422 3419 
Q 422 4038 858 4394 
Q 1294 4750 2059 4750 
Q 2388 4750 2728 4690 
Q 3069 4631 3425 4513 
z
" transform="scale(0.015625)"/>
      <path id="DejaVuSans-44" d="M 1259 4147 
L 1259 519 
L 2022 519 
Q 2988 519 3436 956 
Q 3884 1394 3884 2338 
Q 3884 3275 3436 3711 
Q 2988 4147 2022 4147 
L 1259 4147 
z
M 628 4666 
L 1925 4666 
Q 3281 4666 3915 4102 
Q 4550 3538 4550 2338 
Q 4550 1131 3912 565 
Q 3275 0 1925 0 
L 628 0 
L 628 4666 
z
" transform="scale(0.015625)"/>
      <path id="DejaVuSans-47" d="M 3809 666 
L 3809 1919 
L 2778 1919 
L 2778 2438 
L 4434 2438 
L 4434 434 
Q 4069 175 3628 42 
Q 3188 -91 2688 -91 
Q 1594 -91 976 548 
Q 359 1188 359 2328 
Q 359 3472 976 4111 
Q 1594 4750 2688 4750 
Q 3144 4750 3555 4637 
Q 3966 4525 4313 4306 
L 4313 3634 
Q 3963 3931 3569 4081 
Q 3175 4231 2741 4231 
Q 1884 4231 1454 3753 
Q 1025 3275 1025 2328 
Q 1025 1384 1454 906 
Q 1884 428 2741 428 
Q 3075 428 3337 486 
Q 3600 544 3809 666 
z
" transform="scale(0.015625)"/>
      <path id="DejaVuSans-31" d="M 794 531 
L 1825 531 
L 1825 4091 
L 703 3866 
L 703 4441 
L 1819 4666 
L 2450 4666 
L 2450 531 
L 3481 531 
L 3481 0 
L 794 0 
L 794 531 
z
" transform="scale(0.015625)"/>
      <path id="DejaVuSans-3a" d="M 750 794 
L 1409 794 
L 1409 0 
L 750 0 
L 750 794 
z
M 750 3309 
L 1409 3309 
L 1409 2516 
L 750 2516 
L 750 3309 
z
" transform="scale(0.015625)"/>
      <path id="DejaVuSans-20" transform="scale(0.015625)"/>
      <path id="DejaVuSans-4e" d="M 628 4666 
L 1478 4666 
L 3547 763 
L 3547 4666 
L 4159 4666 
L 4159 0 
L 3309 0 
L 1241 3903 
L 1241 0 
L 628 0 
L 628 4666 
z
" transform="scale(0.015625)"/>
      <path id="DejaVuSans-6f" d="M 1959 3097 
Q 1497 3097 1228 2736 
Q 959 2375 959 1747 
Q 959 1119 1226 758 
Q 1494 397 1959 397 
Q 2419 397 2687 759 
Q 2956 1122 2956 1747 
Q 2956 2369 2687 2733 
Q 2419 3097 1959 3097 
z
M 1959 3584 
Q 2709 3584 3137 3096 
Q 3566 2609 3566 1747 
Q 3566 888 3137 398 
Q 2709 -91 1959 -91 
Q 1206 -91 779 398 
Q 353 888 353 1747 
Q 353 2609 779 3096 
Q 1206 3584 1959 3584 
z
" transform="scale(0.015625)"/>
      <path id="DejaVuSans-50" d="M 1259 4147 
L 1259 2394 
L 2053 2394 
Q 2494 2394 2734 2622 
Q 2975 2850 2975 3272 
Q 2975 3691 2734 3919 
Q 2494 4147 2053 4147 
L 1259 4147 
z
M 628 4666 
L 2053 4666 
Q 2838 4666 3239 4311 
Q 3641 3956 3641 3272 
Q 3641 2581 3239 2228 
Q 2838 1875 2053 1875 
L 1259 1875 
L 1259 0 
L 628 0 
L 628 4666 
z
" transform="scale(0.015625)"/>
      <path id="DejaVuSans-76" d="M 191 3500 
L 800 3500 
L 1894 563 
L 2988 3500 
L 3597 3500 
L 2284 0 
L 1503 0 
L 191 3500 
z
" transform="scale(0.015625)"/>
      <path id="DejaVuSans-65" d="M 3597 1894 
L 3597 1613 
L 953 1613 
Q 991 1019 1311 708 
Q 1631 397 2203 397 
Q 2534 397 2845 478 
Q 3156 559 3463 722 
L 3463 178 
Q 3153 47 2828 -22 
Q 2503 -91 2169 -91 
Q 1331 -91 842 396 
Q 353 884 353 1716 
Q 353 2575 817 3079 
Q 1281 3584 2069 3584 
Q 2775 3584 3186 3129 
Q 3597 2675 3597 1894 
z
M 3022 2063 
Q 3016 2534 2758 2815 
Q 2500 3097 2075 3097 
Q 1594 3097 1305 2825 
Q 1016 2553 972 2059 
L 3022 2063 
z
" transform="scale(0.015625)"/>
      <path id="DejaVuSans-72" d="M 2631 2963 
Q 2534 3019 2420 3045 
Q 2306 3072 2169 3072 
Q 1681 3072 1420 2755 
Q 1159 2438 1159 1844 
L 1159 0 
L 581 0 
L 581 3500 
L 1159 3500 
L 1159 2956 
Q 1341 3275 1631 3429 
Q 1922 3584 2338 3584 
Q 2397 3584 2469 3576 
Q 2541 3569 2628 3553 
L 2631 2963 
z
" transform="scale(0.015625)"/>
      <path id="DejaVuSans-74" d="M 1172 4494 
L 1172 3500 
L 2356 3500 
L 2356 3053 
L 1172 3053 
L 1172 1153 
Q 1172 725 1289 603 
Q 1406 481 1766 481 
L 2356 481 
L 2356 0 
L 1766 0 
Q 1100 0 847 248 
Q 594 497 594 1153 
L 594 3053 
L 172 3053 
L 172 3500 
L 594 3500 
L 594 4494 
L 1172 4494 
z
" transform="scale(0.015625)"/>
      <path id="DejaVuSans-79" d="M 2059 -325 
Q 1816 -950 1584 -1140 
Q 1353 -1331 966 -1331 
L 506 -1331 
L 506 -850 
L 844 -850 
Q 1081 -850 1212 -737 
Q 1344 -625 1503 -206 
L 1606 56 
L 191 3500 
L 800 3500 
L 1894 763 
L 2988 3500 
L 3597 3500 
L 2059 -325 
z
" transform="scale(0.015625)"/>
     </defs>
     <use xlink:href="#DejaVuSans-53"/>
     <use xlink:href="#DejaVuSans-44" x="63.476562"/>
     <use xlink:href="#DejaVuSans-47" x="140.478516"/>
     <use xlink:href="#DejaVuSans-31" x="217.96875"/>
     <use xlink:href="#DejaVuSans-3a" x="281.591797"/>
     <use xlink:href="#DejaVuSans-20" x="315.283203"/>
     <use xlink:href="#DejaVuSans-4e" x="347.070312"/>
     <use xlink:href="#DejaVuSans-6f" x="421.875"/>
     <use xlink:href="#DejaVuSans-20" x="483.056641"/>
     <use xlink:href="#DejaVuSans-50" x="514.84375"/>
     <use xlink:href="#DejaVuSans-6f" x="571.521484"/>
     <use xlink:href="#DejaVuSans-76" x="632.703125"/>
     <use xlink:href="#DejaVuSans-65" x="691.882812"/>
     <use xlink:href="#DejaVuSans-72" x="753.40625"/>
     <use xlink:href="#DejaVuSans-74" x="794.519531"/>
     <use xlink:href="#DejaVuSans-79" x="833.728516"/>
    </g>
   </g>
   <g id="text_2">
    <g id="patch_3">
     <path d="M 292.598006 471.343373 
L 415.862068 471.343373 
L 415.862068 453.665248 
L 292.598006 453.665248 
z
" style="fill: #ffffff; fill-opacity: 0.35; stroke: #ffffff; stroke-opacity: 0.35; stroke-linejoin: miter"/>
    </g>
    <!-- SDG5: Gender Equality -->
    <g transform="translate(296.598006 465.263685)scale(0.1 -0.1)">
     <defs>
      <path id="DejaVuSans-35" d="M 691 4666 
L 3169 4666 
L 3169 4134 
L 1269 4134 
L 1269 2991 
Q 1406 3038 1543 3061 
Q 1681 3084 1819 3084 
Q 2600 3084 3056 2656 
Q 3513 2228 3513 1497 
Q 3513 744 3044 326 
Q 2575 -91 1722 -91 
Q 1428 -91 1123 -41 
Q 819 9 494 109 
L 494 744 
Q 775 591 1075 516 
Q 1375 441 1709 441 
Q 2250 441 2565 725 
Q 2881 1009 2881 1497 
Q 2881 1984 2565 2268 
Q 2250 2553 1709 2553 
Q 1456 2553 1204 2497 
Q 953 2441 691 2322 
L 691 4666 
z
" transform="scale(0.015625)"/>
      <path id="DejaVuSans-6e" d="M 3513 2113 
L 3513 0 
L 2938 0 
L 2938 2094 
Q 2938 2591 2744 2837 
Q 2550 3084 2163 3084 
Q 1697 3084 1428 2787 
Q 1159 2491 1159 1978 
L 1159 0 
L 581 0 
L 581 3500 
L 1159 3500 
L 1159 2956 
Q 1366 3272 1645 3428 
Q 1925 3584 2291 3584 
Q 2894 3584 3203 3211 
Q 3513 2838 3513 2113 
z
" transform="scale(0.015625)"/>
      <path id="DejaVuSans-64" d="M 2906 2969 
L 2906 4863 
L 3481 4863 
L 3481 0 
L 2906 0 
L 2906 525 
Q 2725 213 2448 61 
Q 2172 -91 1784 -91 
Q 1150 -91 751 415 
Q 353 922 353 1747 
Q 353 2572 751 3078 
Q 1150 3584 1784 3584 
Q 2172 3584 2448 3432 
Q 2725 3281 2906 2969 
z
M 947 1747 
Q 947 1113 1208 752 
Q 1469 391 1925 391 
Q 2381 391 2643 752 
Q 2906 1113 2906 1747 
Q 2906 2381 2643 2742 
Q 2381 3103 1925 3103 
Q 1469 3103 1208 2742 
Q 947 2381 947 1747 
z
" transform="scale(0.015625)"/>
      <path id="DejaVuSans-45" d="M 628 4666 
L 3578 4666 
L 3578 4134 
L 1259 4134 
L 1259 2753 
L 3481 2753 
L 3481 2222 
L 1259 2222 
L 1259 531 
L 3634 531 
L 3634 0 
L 628 0 
L 628 4666 
z
" transform="scale(0.015625)"/>
      <path id="DejaVuSans-71" d="M 947 1747 
Q 947 1113 1208 752 
Q 1469 391 1925 391 
Q 2381 391 2643 752 
Q 2906 1113 2906 1747 
Q 2906 2381 2643 2742 
Q 2381 3103 1925 3103 
Q 1469 3103 1208 2742 
Q 947 2381 947 1747 
z
M 2906 525 
Q 2725 213 2448 61 
Q 2172 -91 1784 -91 
Q 1150 -91 751 415 
Q 353 922 353 1747 
Q 353 2572 751 3078 
Q 1150 3584 1784 3584 
Q 2172 3584 2448 3432 
Q 2725 3281 2906 2969 
L 2906 3500 
L 3481 3500 
L 3481 -1331 
L 2906 -1331 
L 2906 525 
z
" transform="scale(0.015625)"/>
      <path id="DejaVuSans-75" d="M 544 1381 
L 544 3500 
L 1119 3500 
L 1119 1403 
Q 1119 906 1312 657 
Q 1506 409 1894 409 
Q 2359 409 2629 706 
Q 2900 1003 2900 1516 
L 2900 3500 
L 3475 3500 
L 3475 0 
L 2900 0 
L 2900 538 
Q 2691 219 2414 64 
Q 2138 -91 1772 -91 
Q 1169 -91 856 284 
Q 544 659 544 1381 
z
M 1991 3584 
L 1991 3584 
z
" transform="scale(0.015625)"/>
      <path id="DejaVuSans-61" d="M 2194 1759 
Q 1497 1759 1228 1600 
Q 959 1441 959 1056 
Q 959 750 1161 570 
Q 1363 391 1709 391 
Q 2188 391 2477 730 
Q 2766 1069 2766 1631 
L 2766 1759 
L 2194 1759 
z
M 3341 1997 
L 3341 0 
L 2766 0 
L 2766 531 
Q 2569 213 2275 61 
Q 1981 -91 1556 -91 
Q 1019 -91 701 211 
Q 384 513 384 1019 
Q 384 1609 779 1909 
Q 1175 2209 1959 2209 
L 2766 2209 
L 2766 2266 
Q 2766 2663 2505 2880 
Q 2244 3097 1772 3097 
Q 1472 3097 1187 3025 
Q 903 2953 641 2809 
L 641 3341 
Q 956 3463 1253 3523 
Q 1550 3584 1831 3584 
Q 2591 3584 2966 3190 
Q 3341 2797 3341 1997 
z
" transform="scale(0.015625)"/>
      <path id="DejaVuSans-6c" d="M 603 4863 
L 1178 4863 
L 1178 0 
L 603 0 
L 603 4863 
z
" transform="scale(0.015625)"/>
      <path id="DejaVuSans-69" d="M 603 3500 
L 1178 3500 
L 1178 0 
L 603 0 
L 603 3500 
z
M 603 4863 
L 1178 4863 
L 1178 4134 
L 603 4134 
L 603 4863 
z
" transform="scale(0.015625)"/>
     </defs>
     <use xlink:href="#DejaVuSans-53"/>
     <use xlink:href="#DejaVuSans-44" x="63.476562"/>
     <use xlink:href="#DejaVuSans-47" x="140.478516"/>
     <use xlink:href="#DejaVuSans-35" x="217.96875"/>
     <use xlink:href="#DejaVuSans-3a" x="281.591797"/>
     <use xlink:href="#DejaVuSans-20" x="315.283203"/>
     <use xlink:href="#DejaVuSans-47" x="347.070312"/>
     <use xlink:href="#DejaVuSans-65" x="424.560547"/>
     <use xlink:href="#DejaVuSans-6e" x="486.083984"/>
     <use xlink:href="#DejaVuSans-64" x="549.462891"/>
     <use xlink:href="#DejaVuSans-65" x="612.939453"/>
     <use xlink:href="#DejaVuSans-72" x="674.462891"/>
     <use xlink:href="#DejaVuSans-20" x="715.576172"/>
     <use xlink:href="#DejaVuSans-45" x="747.363281"/>
     <use xlink:href="#DejaVuSans-71" x="810.546875"/>
     <use xlink:href="#DejaVuSans-75" x="874.023438"/>
     <use xlink:href="#DejaVuSans-61" x="937.402344"/>
     <use xlink:href="#DejaVuSans-6c" x="998.681641"/>
     <use xlink:href="#DejaVuSans-69" x="1026.464844"/>
     <use xlink:href="#DejaVuSans-74" x="1054.248047"/>
     <use xlink:href="#DejaVuSans-79" x="1093.457031"/>
    </g>
   </g>
   <g id="text_3">
    <g id="patch_4">
     <path d="M 475.954524 254.971221 
L 732.732649 254.971221 
L 732.732649 237.293096 
L 475.954524 237.293096 
z
" style="fill: #ffffff; fill-opacity: 0.35; stroke: #ffffff; stroke-opacity: 0.35; stroke-linejoin: miter"/>
    </g>
    <!-- SDG12: Responsible Consumption and Production -->
    <g transform="translate(479.954524 248.891533)scale(0.1 -0.1)">
     <defs>
      <path id="DejaVuSans-32" d="M 1228 531 
L 3431 531 
L 3431 0 
L 469 0 
L 469 531 
Q 828 903 1448 1529 
Q 2069 2156 2228 2338 
Q 2531 2678 2651 2914 
Q 2772 3150 2772 3378 
Q 2772 3750 2511 3984 
Q 2250 4219 1831 4219 
Q 1534 4219 1204 4116 
Q 875 4013 500 3803 
L 500 4441 
Q 881 4594 1212 4672 
Q 1544 4750 1819 4750 
Q 2544 4750 2975 4387 
Q 3406 4025 3406 3419 
Q 3406 3131 3298 2873 
Q 3191 2616 2906 2266 
Q 2828 2175 2409 1742 
Q 1991 1309 1228 531 
z
" transform="scale(0.015625)"/>
      <path id="DejaVuSans-52" d="M 2841 2188 
Q 3044 2119 3236 1894 
Q 3428 1669 3622 1275 
L 4263 0 
L 3584 0 
L 2988 1197 
Q 2756 1666 2539 1819 
Q 2322 1972 1947 1972 
L 1259 1972 
L 1259 0 
L 628 0 
L 628 4666 
L 2053 4666 
Q 2853 4666 3247 4331 
Q 3641 3997 3641 3322 
Q 3641 2881 3436 2590 
Q 3231 2300 2841 2188 
z
M 1259 4147 
L 1259 2491 
L 2053 2491 
Q 2509 2491 2742 2702 
Q 2975 2913 2975 3322 
Q 2975 3731 2742 3939 
Q 2509 4147 2053 4147 
L 1259 4147 
z
" transform="scale(0.015625)"/>
      <path id="DejaVuSans-73" d="M 2834 3397 
L 2834 2853 
Q 2591 2978 2328 3040 
Q 2066 3103 1784 3103 
Q 1356 3103 1142 2972 
Q 928 2841 928 2578 
Q 928 2378 1081 2264 
Q 1234 2150 1697 2047 
L 1894 2003 
Q 2506 1872 2764 1633 
Q 3022 1394 3022 966 
Q 3022 478 2636 193 
Q 2250 -91 1575 -91 
Q 1294 -91 989 -36 
Q 684 19 347 128 
L 347 722 
Q 666 556 975 473 
Q 1284 391 1588 391 
Q 1994 391 2212 530 
Q 2431 669 2431 922 
Q 2431 1156 2273 1281 
Q 2116 1406 1581 1522 
L 1381 1569 
Q 847 1681 609 1914 
Q 372 2147 372 2553 
Q 372 3047 722 3315 
Q 1072 3584 1716 3584 
Q 2034 3584 2315 3537 
Q 2597 3491 2834 3397 
z
" transform="scale(0.015625)"/>
      <path id="DejaVuSans-70" d="M 1159 525 
L 1159 -1331 
L 581 -1331 
L 581 3500 
L 1159 3500 
L 1159 2969 
Q 1341 3281 1617 3432 
Q 1894 3584 2278 3584 
Q 2916 3584 3314 3078 
Q 3713 2572 3713 1747 
Q 3713 922 3314 415 
Q 2916 -91 2278 -91 
Q 1894 -91 1617 61 
Q 1341 213 1159 525 
z
M 3116 1747 
Q 3116 2381 2855 2742 
Q 2594 3103 2138 3103 
Q 1681 3103 1420 2742 
Q 1159 2381 1159 1747 
Q 1159 1113 1420 752 
Q 1681 391 2138 391 
Q 2594 391 2855 752 
Q 3116 1113 3116 1747 
z
" transform="scale(0.015625)"/>
      <path id="DejaVuSans-62" d="M 3116 1747 
Q 3116 2381 2855 2742 
Q 2594 3103 2138 3103 
Q 1681 3103 1420 2742 
Q 1159 2381 1159 1747 
Q 1159 1113 1420 752 
Q 1681 391 2138 391 
Q 2594 391 2855 752 
Q 3116 1113 3116 1747 
z
M 1159 2969 
Q 1341 3281 1617 3432 
Q 1894 3584 2278 3584 
Q 2916 3584 3314 3078 
Q 3713 2572 3713 1747 
Q 3713 922 3314 415 
Q 2916 -91 2278 -91 
Q 1894 -91 1617 61 
Q 1341 213 1159 525 
L 1159 0 
L 581 0 
L 581 4863 
L 1159 4863 
L 1159 2969 
z
" transform="scale(0.015625)"/>
      <path id="DejaVuSans-43" d="M 4122 4306 
L 4122 3641 
Q 3803 3938 3442 4084 
Q 3081 4231 2675 4231 
Q 1875 4231 1450 3742 
Q 1025 3253 1025 2328 
Q 1025 1406 1450 917 
Q 1875 428 2675 428 
Q 3081 428 3442 575 
Q 3803 722 4122 1019 
L 4122 359 
Q 3791 134 3420 21 
Q 3050 -91 2638 -91 
Q 1578 -91 968 557 
Q 359 1206 359 2328 
Q 359 3453 968 4101 
Q 1578 4750 2638 4750 
Q 3056 4750 3426 4639 
Q 3797 4528 4122 4306 
z
" transform="scale(0.015625)"/>
      <path id="DejaVuSans-6d" d="M 3328 2828 
Q 3544 3216 3844 3400 
Q 4144 3584 4550 3584 
Q 5097 3584 5394 3201 
Q 5691 2819 5691 2113 
L 5691 0 
L 5113 0 
L 5113 2094 
Q 5113 2597 4934 2840 
Q 4756 3084 4391 3084 
Q 3944 3084 3684 2787 
Q 3425 2491 3425 1978 
L 3425 0 
L 2847 0 
L 2847 2094 
Q 2847 2600 2669 2842 
Q 2491 3084 2119 3084 
Q 1678 3084 1418 2786 
Q 1159 2488 1159 1978 
L 1159 0 
L 581 0 
L 581 3500 
L 1159 3500 
L 1159 2956 
Q 1356 3278 1631 3431 
Q 1906 3584 2284 3584 
Q 2666 3584 2933 3390 
Q 3200 3197 3328 2828 
z
" transform="scale(0.015625)"/>
      <path id="DejaVuSans-63" d="M 3122 3366 
L 3122 2828 
Q 2878 2963 2633 3030 
Q 2388 3097 2138 3097 
Q 1578 3097 1268 2742 
Q 959 2388 959 1747 
Q 959 1106 1268 751 
Q 1578 397 2138 397 
Q 2388 397 2633 464 
Q 2878 531 3122 666 
L 3122 134 
Q 2881 22 2623 -34 
Q 2366 -91 2075 -91 
Q 1284 -91 818 406 
Q 353 903 353 1747 
Q 353 2603 823 3093 
Q 1294 3584 2113 3584 
Q 2378 3584 2631 3529 
Q 2884 3475 3122 3366 
z
" transform="scale(0.015625)"/>
     </defs>
     <use xlink:href="#DejaVuSans-53"/>
     <use xlink:href="#DejaVuSans-44" x="63.476562"/>
     <use xlink:href="#DejaVuSans-47" x="140.478516"/>
     <use xlink:href="#DejaVuSans-31" x="217.96875"/>
     <use xlink:href="#DejaVuSans-32" x="281.591797"/>
     <use xlink:href="#DejaVuSans-3a" x="345.214844"/>
     <use xlink:href="#DejaVuSans-20" x="378.90625"/>
     <use xlink:href="#DejaVuSans-52" x="410.693359"/>
     <use xlink:href="#DejaVuSans-65" x="475.675781"/>
     <use xlink:href="#DejaVuSans-73" x="537.199219"/>
     <use xlink:href="#DejaVuSans-70" x="589.298828"/>
     <use xlink:href="#DejaVuSans-6f" x="652.775391"/>
     <use xlink:href="#DejaVuSans-6e" x="713.957031"/>
     <use xlink:href="#DejaVuSans-73" x="777.335938"/>
     <use xlink:href="#DejaVuSans-69" x="829.435547"/>
     <use xlink:href="#DejaVuSans-62" x="857.21875"/>
     <use xlink:href="#DejaVuSans-6c" x="920.695312"/>
     <use xlink:href="#DejaVuSans-65" x="948.478516"/>
     <use xlink:href="#DejaVuSans-20" x="1010.001953"/>
     <use xlink:href="#DejaVuSans-43" x="1041.789062"/>
     <use xlink:href="#DejaVuSans-6f" x="1111.613281"/>
     <use xlink:href="#DejaVuSans-6e" x="1172.794922"/>
     <use xlink:href="#DejaVuSans-73" x="1236.173828"/>
     <use xlink:href="#DejaVuSans-75" x="1288.273438"/>
     <use xlink:href="#DejaVuSans-6d" x="1351.652344"/>
     <use xlink:href="#DejaVuSans-70" x="1449.064453"/>
     <use xlink:href="#DejaVuSans-74" x="1512.541016"/>
     <use xlink:href="#DejaVuSans-69" x="1551.75"/>
     <use xlink:href="#DejaVuSans-6f" x="1579.533203"/>
     <use xlink:href="#DejaVuSans-6e" x="1640.714844"/>
     <use xlink:href="#DejaVuSans-20" x="1704.09375"/>
     <use xlink:href="#DejaVuSans-61" x="1735.880859"/>
     <use xlink:href="#DejaVuSans-6e" x="1797.160156"/>
     <use xlink:href="#DejaVuSans-64" x="1860.539062"/>
     <use xlink:href="#DejaVuSans-20" x="1924.015625"/>
     <use xlink:href="#DejaVuSans-50" x="1955.802734"/>
     <use xlink:href="#DejaVuSans-72" x="2014.355469"/>
     <use xlink:href="#DejaVuSans-6f" x="2053.21875"/>
     <use xlink:href="#DejaVuSans-64" x="2114.400391"/>
     <use xlink:href="#DejaVuSans-75" x="2177.876953"/>
     <use xlink:href="#DejaVuSans-63" x="2241.255859"/>
     <use xlink:href="#DejaVuSans-74" x="2296.236328"/>
     <use xlink:href="#DejaVuSans-69" x="2335.445312"/>
     <use xlink:href="#DejaVuSans-6f" x="2363.228516"/>
     <use xlink:href="#DejaVuSans-6e" x="2424.410156"/>
    </g>
   </g>
   <g id="text_4">
    <g id="patch_5">
     <path d="M 169.31445 156.792878 
L 401.1332 156.792878 
L 401.1332 139.114753 
L 169.31445 139.114753 
z
" style="fill: #ffffff; fill-opacity: 0.35; stroke: #ffffff; stroke-opacity: 0.35; stroke-linejoin: miter"/>
    </g>
    <!-- SDG16: Peace and Justice Strong Institutions -->
    <g transform="translate(173.31445 150.713191)scale(0.1 -0.1)">
     <defs>
      <path id="DejaVuSans-36" d="M 2113 2584 
Q 1688 2584 1439 2293 
Q 1191 2003 1191 1497 
Q 1191 994 1439 701 
Q 1688 409 2113 409 
Q 2538 409 2786 701 
Q 3034 994 3034 1497 
Q 3034 2003 2786 2293 
Q 2538 2584 2113 2584 
z
M 3366 4563 
L 3366 3988 
Q 3128 4100 2886 4159 
Q 2644 4219 2406 4219 
Q 1781 4219 1451 3797 
Q 1122 3375 1075 2522 
Q 1259 2794 1537 2939 
Q 1816 3084 2150 3084 
Q 2853 3084 3261 2657 
Q 3669 2231 3669 1497 
Q 3669 778 3244 343 
Q 2819 -91 2113 -91 
Q 1303 -91 875 529 
Q 447 1150 447 2328 
Q 447 3434 972 4092 
Q 1497 4750 2381 4750 
Q 2619 4750 2861 4703 
Q 3103 4656 3366 4563 
z
" transform="scale(0.015625)"/>
      <path id="DejaVuSans-4a" d="M 628 4666 
L 1259 4666 
L 1259 325 
Q 1259 -519 939 -900 
Q 619 -1281 -91 -1281 
L -331 -1281 
L -331 -750 
L -134 -750 
Q 284 -750 456 -515 
Q 628 -281 628 325 
L 628 4666 
z
" transform="scale(0.015625)"/>
      <path id="DejaVuSans-67" d="M 2906 1791 
Q 2906 2416 2648 2759 
Q 2391 3103 1925 3103 
Q 1463 3103 1205 2759 
Q 947 2416 947 1791 
Q 947 1169 1205 825 
Q 1463 481 1925 481 
Q 2391 481 2648 825 
Q 2906 1169 2906 1791 
z
M 3481 434 
Q 3481 -459 3084 -895 
Q 2688 -1331 1869 -1331 
Q 1566 -1331 1297 -1286 
Q 1028 -1241 775 -1147 
L 775 -588 
Q 1028 -725 1275 -790 
Q 1522 -856 1778 -856 
Q 2344 -856 2625 -561 
Q 2906 -266 2906 331 
L 2906 616 
Q 2728 306 2450 153 
Q 2172 0 1784 0 
Q 1141 0 747 490 
Q 353 981 353 1791 
Q 353 2603 747 3093 
Q 1141 3584 1784 3584 
Q 2172 3584 2450 3431 
Q 2728 3278 2906 2969 
L 2906 3500 
L 3481 3500 
L 3481 434 
z
" transform="scale(0.015625)"/>
      <path id="DejaVuSans-49" d="M 628 4666 
L 1259 4666 
L 1259 0 
L 628 0 
L 628 4666 
z
" transform="scale(0.015625)"/>
     </defs>
     <use xlink:href="#DejaVuSans-53"/>
     <use xlink:href="#DejaVuSans-44" x="63.476562"/>
     <use xlink:href="#DejaVuSans-47" x="140.478516"/>
     <use xlink:href="#DejaVuSans-31" x="217.96875"/>
     <use xlink:href="#DejaVuSans-36" x="281.591797"/>
     <use xlink:href="#DejaVuSans-3a" x="345.214844"/>
     <use xlink:href="#DejaVuSans-20" x="378.90625"/>
     <use xlink:href="#DejaVuSans-50" x="410.693359"/>
     <use xlink:href="#DejaVuSans-65" x="467.371094"/>
     <use xlink:href="#DejaVuSans-61" x="528.894531"/>
     <use xlink:href="#DejaVuSans-63" x="590.173828"/>
     <use xlink:href="#DejaVuSans-65" x="645.154297"/>
     <use xlink:href="#DejaVuSans-20" x="706.677734"/>
     <use xlink:href="#DejaVuSans-61" x="738.464844"/>
     <use xlink:href="#DejaVuSans-6e" x="799.744141"/>
     <use xlink:href="#DejaVuSans-64" x="863.123047"/>
     <use xlink:href="#DejaVuSans-20" x="926.599609"/>
     <use xlink:href="#DejaVuSans-4a" x="958.386719"/>
     <use xlink:href="#DejaVuSans-75" x="987.878906"/>
     <use xlink:href="#DejaVuSans-73" x="1051.257812"/>
     <use xlink:href="#DejaVuSans-74" x="1103.357422"/>
     <use xlink:href="#DejaVuSans-69" x="1142.566406"/>
     <use xlink:href="#DejaVuSans-63" x="1170.349609"/>
     <use xlink:href="#DejaVuSans-65" x="1225.330078"/>
     <use xlink:href="#DejaVuSans-20" x="1286.853516"/>
     <use xlink:href="#DejaVuSans-53" x="1318.640625"/>
     <use xlink:href="#DejaVuSans-74" x="1382.117188"/>
     <use xlink:href="#DejaVuSans-72" x="1421.326172"/>
     <use xlink:href="#DejaVuSans-6f" x="1460.189453"/>
     <use xlink:href="#DejaVuSans-6e" x="1521.371094"/>
     <use xlink:href="#DejaVuSans-67" x="1584.75"/>
     <use xlink:href="#DejaVuSans-20" x="1648.226562"/>
     <use xlink:href="#DejaVuSans-49" x="1680.013672"/>
     <use xlink:href="#DejaVuSans-6e" x="1709.505859"/>
     <use xlink:href="#DejaVuSans-73" x="1772.884766"/>
     <use xlink:href="#DejaVuSans-74" x="1824.984375"/>
     <use xlink:href="#DejaVuSans-69" x="1864.193359"/>
     <use xlink:href="#DejaVuSans-74" x="1891.976562"/>
     <use xlink:href="#DejaVuSans-75" x="1931.185547"/>
     <use xlink:href="#DejaVuSans-74" x="1994.564453"/>
     <use xlink:href="#DejaVuSans-69" x="2033.773438"/>
     <use xlink:href="#DejaVuSans-6f" x="2061.556641"/>
     <use xlink:href="#DejaVuSans-6e" x="2122.738281"/>
     <use xlink:href="#DejaVuSans-73" x="2186.117188"/>
    </g>
   </g>
   <g id="text_5">
    <g id="patch_6">
     <path d="M 258.125887 124.085666 
L 391.225887 124.085666 
L 391.225887 106.407541 
L 258.125887 106.407541 
z
" style="fill: #ffffff; fill-opacity: 0.35; stroke: #ffffff; stroke-opacity: 0.35; stroke-linejoin: miter"/>
    </g>
    <!-- SDG14: Life Below Water -->
    <g transform="translate(262.125887 118.005978)scale(0.1 -0.1)">
     <defs>
      <path id="DejaVuSans-34" d="M 2419 4116 
L 825 1625 
L 2419 1625 
L 2419 4116 
z
M 2253 4666 
L 3047 4666 
L 3047 1625 
L 3713 1625 
L 3713 1100 
L 3047 1100 
L 3047 0 
L 2419 0 
L 2419 1100 
L 313 1100 
L 313 1709 
L 2253 4666 
z
" transform="scale(0.015625)"/>
      <path id="DejaVuSans-4c" d="M 628 4666 
L 1259 4666 
L 1259 531 
L 3531 531 
L 3531 0 
L 628 0 
L 628 4666 
z
" transform="scale(0.015625)"/>
      <path id="DejaVuSans-66" d="M 2375 4863 
L 2375 4384 
L 1825 4384 
Q 1516 4384 1395 4259 
Q 1275 4134 1275 3809 
L 1275 3500 
L 2222 3500 
L 2222 3053 
L 1275 3053 
L 1275 0 
L 697 0 
L 697 3053 
L 147 3053 
L 147 3500 
L 697 3500 
L 697 3744 
Q 697 4328 969 4595 
Q 1241 4863 1831 4863 
L 2375 4863 
z
" transform="scale(0.015625)"/>
      <path id="DejaVuSans-42" d="M 1259 2228 
L 1259 519 
L 2272 519 
Q 2781 519 3026 730 
Q 3272 941 3272 1375 
Q 3272 1813 3026 2020 
Q 2781 2228 2272 2228 
L 1259 2228 
z
M 1259 4147 
L 1259 2741 
L 2194 2741 
Q 2656 2741 2882 2914 
Q 3109 3088 3109 3444 
Q 3109 3797 2882 3972 
Q 2656 4147 2194 4147 
L 1259 4147 
z
M 628 4666 
L 2241 4666 
Q 2963 4666 3353 4366 
Q 3744 4066 3744 3513 
Q 3744 3084 3544 2831 
Q 3344 2578 2956 2516 
Q 3422 2416 3680 2098 
Q 3938 1781 3938 1306 
Q 3938 681 3513 340 
Q 3088 0 2303 0 
L 628 0 
L 628 4666 
z
" transform="scale(0.015625)"/>
      <path id="DejaVuSans-77" d="M 269 3500 
L 844 3500 
L 1563 769 
L 2278 3500 
L 2956 3500 
L 3675 769 
L 4391 3500 
L 4966 3500 
L 4050 0 
L 3372 0 
L 2619 2869 
L 1863 0 
L 1184 0 
L 269 3500 
z
" transform="scale(0.015625)"/>
      <path id="DejaVuSans-57" d="M 213 4666 
L 850 4666 
L 1831 722 
L 2809 4666 
L 3519 4666 
L 4500 722 
L 5478 4666 
L 6119 4666 
L 4947 0 
L 4153 0 
L 3169 4050 
L 2175 0 
L 1381 0 
L 213 4666 
z
" transform="scale(0.015625)"/>
     </defs>
     <use xlink:href="#DejaVuSans-53"/>
     <use xlink:href="#DejaVuSans-44" x="63.476562"/>
     <use xlink:href="#DejaVuSans-47" x="140.478516"/>
     <use xlink:href="#DejaVuSans-31" x="217.96875"/>
     <use xlink:href="#DejaVuSans-34" x="281.591797"/>
     <use xlink:href="#DejaVuSans-3a" x="345.214844"/>
     <use xlink:href="#DejaVuSans-20" x="378.90625"/>
     <use xlink:href="#DejaVuSans-4c" x="410.693359"/>
     <use xlink:href="#DejaVuSans-69" x="466.40625"/>
     <use xlink:href="#DejaVuSans-66" x="494.189453"/>
     <use xlink:href="#DejaVuSans-65" x="529.394531"/>
     <use xlink:href="#DejaVuSans-20" x="590.917969"/>
     <use xlink:href="#DejaVuSans-42" x="622.705078"/>
     <use xlink:href="#DejaVuSans-65" x="691.308594"/>
     <use xlink:href="#DejaVuSans-6c" x="752.832031"/>
     <use xlink:href="#DejaVuSans-6f" x="780.615234"/>
     <use xlink:href="#DejaVuSans-77" x="841.796875"/>
     <use xlink:href="#DejaVuSans-20" x="923.583984"/>
     <use xlink:href="#DejaVuSans-57" x="955.371094"/>
     <use xlink:href="#DejaVuSans-61" x="1047.873047"/>
     <use xlink:href="#DejaVuSans-74" x="1109.152344"/>
     <use xlink:href="#DejaVuSans-65" x="1148.361328"/>
     <use xlink:href="#DejaVuSans-72" x="1209.884766"/>
    </g>
   </g>
   <g id="text_6">
    <g id="patch_7">
     <path d="M 403.371003 443.930313 
L 513.661628 443.930313 
L 513.661628 426.252188 
L 403.371003 426.252188 
z
" style="fill: #ffffff; fill-opacity: 0.35; stroke: #ffffff; stroke-opacity: 0.35; stroke-linejoin: miter"/>
    </g>
    <!-- SDG15: Life on Land -->
    <g transform="translate(407.371003 437.850625)scale(0.1 -0.1)">
     <use xlink:href="#DejaVuSans-53"/>
     <use xlink:href="#DejaVuSans-44" x="63.476562"/>
     <use xlink:href="#DejaVuSans-47" x="140.478516"/>
     <use xlink:href="#DejaVuSans-31" x="217.96875"/>
     <use xlink:href="#DejaVuSans-35" x="281.591797"/>
     <use xlink:href="#DejaVuSans-3a" x="345.214844"/>
     <use xlink:href="#DejaVuSans-20" x="378.90625"/>
     <use xlink:href="#DejaVuSans-4c" x="410.693359"/>
     <use xlink:href="#DejaVuSans-69" x="466.40625"/>
     <use xlink:href="#DejaVuSans-66" x="494.189453"/>
     <use xlink:href="#DejaVuSans-65" x="529.394531"/>
     <use xlink:href="#DejaVuSans-20" x="590.917969"/>
     <use xlink:href="#DejaVuSans-6f" x="622.705078"/>
     <use xlink:href="#DejaVuSans-6e" x="683.886719"/>
     <use xlink:href="#DejaVuSans-20" x="747.265625"/>
     <use xlink:href="#DejaVuSans-4c" x="779.052734"/>
     <use xlink:href="#DejaVuSans-61" x="834.765625"/>
     <use xlink:href="#DejaVuSans-6e" x="896.044922"/>
     <use xlink:href="#DejaVuSans-64" x="959.423828"/>
    </g>
   </g>
   <g id="text_7">
    <g id="patch_8">
     <path d="M 425.228986 150.613966 
L 556.632111 150.613966 
L 556.632111 132.935841 
L 425.228986 132.935841 
z
" style="fill: #ffffff; fill-opacity: 0.35; stroke: #ffffff; stroke-opacity: 0.35; stroke-linejoin: miter"/>
    </g>
    <!-- SDG4: Quality Education -->
    <g transform="translate(429.228986 144.534279)scale(0.1 -0.1)">
     <defs>
      <path id="DejaVuSans-51" d="M 2522 4238 
Q 1834 4238 1429 3725 
Q 1025 3213 1025 2328 
Q 1025 1447 1429 934 
Q 1834 422 2522 422 
Q 3209 422 3611 934 
Q 4013 1447 4013 2328 
Q 4013 3213 3611 3725 
Q 3209 4238 2522 4238 
z
M 3406 84 
L 4238 -825 
L 3475 -825 
L 2784 -78 
Q 2681 -84 2626 -87 
Q 2572 -91 2522 -91 
Q 1538 -91 948 567 
Q 359 1225 359 2328 
Q 359 3434 948 4092 
Q 1538 4750 2522 4750 
Q 3503 4750 4090 4092 
Q 4678 3434 4678 2328 
Q 4678 1516 4351 937 
Q 4025 359 3406 84 
z
" transform="scale(0.015625)"/>
     </defs>
     <use xlink:href="#DejaVuSans-53"/>
     <use xlink:href="#DejaVuSans-44" x="63.476562"/>
     <use xlink:href="#DejaVuSans-47" x="140.478516"/>
     <use xlink:href="#DejaVuSans-34" x="217.96875"/>
     <use xlink:href="#DejaVuSans-3a" x="281.591797"/>
     <use xlink:href="#DejaVuSans-20" x="315.283203"/>
     <use xlink:href="#DejaVuSans-51" x="347.070312"/>
     <use xlink:href="#DejaVuSans-75" x="425.78125"/>
     <use xlink:href="#DejaVuSans-61" x="489.160156"/>
     <use xlink:href="#DejaVuSans-6c" x="550.439453"/>
     <use xlink:href="#DejaVuSans-69" x="578.222656"/>
     <use xlink:href="#DejaVuSans-74" x="606.005859"/>
     <use xlink:href="#DejaVuSans-79" x="645.214844"/>
     <use xlink:href="#DejaVuSans-20" x="704.394531"/>
     <use xlink:href="#DejaVuSans-45" x="736.181641"/>
     <use xlink:href="#DejaVuSans-64" x="799.365234"/>
     <use xlink:href="#DejaVuSans-75" x="862.841797"/>
     <use xlink:href="#DejaVuSans-63" x="926.220703"/>
     <use xlink:href="#DejaVuSans-61" x="981.201172"/>
     <use xlink:href="#DejaVuSans-74" x="1042.480469"/>
     <use xlink:href="#DejaVuSans-69" x="1081.689453"/>
     <use xlink:href="#DejaVuSans-6f" x="1109.472656"/>
     <use xlink:href="#DejaVuSans-6e" x="1170.654297"/>
    </g>
   </g>
   <g id="text_8">
    <g id="patch_9">
     <path d="M 125.707303 359.484187 
L 247.754178 359.484187 
L 247.754178 341.806062 
L 125.707303 341.806062 
z
" style="fill: #ffffff; fill-opacity: 0.35; stroke: #ffffff; stroke-opacity: 0.35; stroke-linejoin: miter"/>
    </g>
    <!-- SDG13: Climate Action -->
    <g transform="translate(129.707303 353.4045)scale(0.1 -0.1)">
     <defs>
      <path id="DejaVuSans-33" d="M 2597 2516 
Q 3050 2419 3304 2112 
Q 3559 1806 3559 1356 
Q 3559 666 3084 287 
Q 2609 -91 1734 -91 
Q 1441 -91 1130 -33 
Q 819 25 488 141 
L 488 750 
Q 750 597 1062 519 
Q 1375 441 1716 441 
Q 2309 441 2620 675 
Q 2931 909 2931 1356 
Q 2931 1769 2642 2001 
Q 2353 2234 1838 2234 
L 1294 2234 
L 1294 2753 
L 1863 2753 
Q 2328 2753 2575 2939 
Q 2822 3125 2822 3475 
Q 2822 3834 2567 4026 
Q 2313 4219 1838 4219 
Q 1578 4219 1281 4162 
Q 984 4106 628 3988 
L 628 4550 
Q 988 4650 1302 4700 
Q 1616 4750 1894 4750 
Q 2613 4750 3031 4423 
Q 3450 4097 3450 3541 
Q 3450 3153 3228 2886 
Q 3006 2619 2597 2516 
z
" transform="scale(0.015625)"/>
      <path id="DejaVuSans-41" d="M 2188 4044 
L 1331 1722 
L 3047 1722 
L 2188 4044 
z
M 1831 4666 
L 2547 4666 
L 4325 0 
L 3669 0 
L 3244 1197 
L 1141 1197 
L 716 0 
L 50 0 
L 1831 4666 
z
" transform="scale(0.015625)"/>
     </defs>
     <use xlink:href="#DejaVuSans-53"/>
     <use xlink:href="#DejaVuSans-44" x="63.476562"/>
     <use xlink:href="#DejaVuSans-47" x="140.478516"/>
     <use xlink:href="#DejaVuSans-31" x="217.96875"/>
     <use xlink:href="#DejaVuSans-33" x="281.591797"/>
     <use xlink:href="#DejaVuSans-3a" x="345.214844"/>
     <use xlink:href="#DejaVuSans-20" x="378.90625"/>
     <use xlink:href="#DejaVuSans-43" x="410.693359"/>
     <use xlink:href="#DejaVuSans-6c" x="480.517578"/>
     <use xlink:href="#DejaVuSans-69" x="508.300781"/>
     <use xlink:href="#DejaVuSans-6d" x="536.083984"/>
     <use xlink:href="#DejaVuSans-61" x="633.496094"/>
     <use xlink:href="#DejaVuSans-74" x="694.775391"/>
     <use xlink:href="#DejaVuSans-65" x="733.984375"/>
     <use xlink:href="#DejaVuSans-20" x="795.507812"/>
     <use xlink:href="#DejaVuSans-41" x="827.294922"/>
     <use xlink:href="#DejaVuSans-63" x="893.953125"/>
     <use xlink:href="#DejaVuSans-74" x="948.933594"/>
     <use xlink:href="#DejaVuSans-69" x="988.142578"/>
     <use xlink:href="#DejaVuSans-6f" x="1015.925781"/>
     <use xlink:href="#DejaVuSans-6e" x="1077.107422"/>
    </g>
   </g>
   <g id="text_9">
    <g id="patch_10">
     <path d="M 478.747997 360.511254 
L 664.52456 360.511254 
L 664.52456 342.833129 
L 478.747997 342.833129 
z
" style="fill: #ffffff; fill-opacity: 0.35; stroke: #ffffff; stroke-opacity: 0.35; stroke-linejoin: miter"/>
    </g>
    <!-- SDG7: Affordable and Clean Energy -->
    <g transform="translate(482.747997 354.431567)scale(0.1 -0.1)">
     <defs>
      <path id="DejaVuSans-37" d="M 525 4666 
L 3525 4666 
L 3525 4397 
L 1831 0 
L 1172 0 
L 2766 4134 
L 525 4134 
L 525 4666 
z
" transform="scale(0.015625)"/>
     </defs>
     <use xlink:href="#DejaVuSans-53"/>
     <use xlink:href="#DejaVuSans-44" x="63.476562"/>
     <use xlink:href="#DejaVuSans-47" x="140.478516"/>
     <use xlink:href="#DejaVuSans-37" x="217.96875"/>
     <use xlink:href="#DejaVuSans-3a" x="281.591797"/>
     <use xlink:href="#DejaVuSans-20" x="315.283203"/>
     <use xlink:href="#DejaVuSans-41" x="347.070312"/>
     <use xlink:href="#DejaVuSans-66" x="411.853516"/>
     <use xlink:href="#DejaVuSans-66" x="447.058594"/>
     <use xlink:href="#DejaVuSans-6f" x="482.263672"/>
     <use xlink:href="#DejaVuSans-72" x="543.445312"/>
     <use xlink:href="#DejaVuSans-64" x="582.808594"/>
     <use xlink:href="#DejaVuSans-61" x="646.285156"/>
     <use xlink:href="#DejaVuSans-62" x="707.564453"/>
     <use xlink:href="#DejaVuSans-6c" x="771.041016"/>
     <use xlink:href="#DejaVuSans-65" x="798.824219"/>
     <use xlink:href="#DejaVuSans-20" x="860.347656"/>
     <use xlink:href="#DejaVuSans-61" x="892.134766"/>
     <use xlink:href="#DejaVuSans-6e" x="953.414062"/>
     <use xlink:href="#DejaVuSans-64" x="1016.792969"/>
     <use xlink:href="#DejaVuSans-20" x="1080.269531"/>
     <use xlink:href="#DejaVuSans-43" x="1112.056641"/>
     <use xlink:href="#DejaVuSans-6c" x="1181.880859"/>
     <use xlink:href="#DejaVuSans-65" x="1209.664062"/>
     <use xlink:href="#DejaVuSans-61" x="1271.1875"/>
     <use xlink:href="#DejaVuSans-6e" x="1332.466797"/>
     <use xlink:href="#DejaVuSans-20" x="1395.845703"/>
     <use xlink:href="#DejaVuSans-45" x="1427.632812"/>
     <use xlink:href="#DejaVuSans-6e" x="1490.816406"/>
     <use xlink:href="#DejaVuSans-65" x="1554.195312"/>
     <use xlink:href="#DejaVuSans-72" x="1615.71875"/>
     <use xlink:href="#DejaVuSans-67" x="1655.082031"/>
     <use xlink:href="#DejaVuSans-79" x="1718.558594"/>
    </g>
   </g>
   <g id="text_10">
    <g id="patch_11">
     <path d="M 196.463443 434.501372 
L 416.377506 434.501372 
L 416.377506 416.823247 
L 196.463443 416.823247 
z
" style="fill: #ffffff; fill-opacity: 0.35; stroke: #ffffff; stroke-opacity: 0.35; stroke-linejoin: miter"/>
    </g>
    <!-- SDG8: Decent Work and Economic Growth -->
    <g transform="translate(200.463443 428.421684)scale(0.1 -0.1)">
     <defs>
      <path id="DejaVuSans-38" d="M 2034 2216 
Q 1584 2216 1326 1975 
Q 1069 1734 1069 1313 
Q 1069 891 1326 650 
Q 1584 409 2034 409 
Q 2484 409 2743 651 
Q 3003 894 3003 1313 
Q 3003 1734 2745 1975 
Q 2488 2216 2034 2216 
z
M 1403 2484 
Q 997 2584 770 2862 
Q 544 3141 544 3541 
Q 544 4100 942 4425 
Q 1341 4750 2034 4750 
Q 2731 4750 3128 4425 
Q 3525 4100 3525 3541 
Q 3525 3141 3298 2862 
Q 3072 2584 2669 2484 
Q 3125 2378 3379 2068 
Q 3634 1759 3634 1313 
Q 3634 634 3220 271 
Q 2806 -91 2034 -91 
Q 1263 -91 848 271 
Q 434 634 434 1313 
Q 434 1759 690 2068 
Q 947 2378 1403 2484 
z
M 1172 3481 
Q 1172 3119 1398 2916 
Q 1625 2713 2034 2713 
Q 2441 2713 2670 2916 
Q 2900 3119 2900 3481 
Q 2900 3844 2670 4047 
Q 2441 4250 2034 4250 
Q 1625 4250 1398 4047 
Q 1172 3844 1172 3481 
z
" transform="scale(0.015625)"/>
      <path id="DejaVuSans-6b" d="M 581 4863 
L 1159 4863 
L 1159 1991 
L 2875 3500 
L 3609 3500 
L 1753 1863 
L 3688 0 
L 2938 0 
L 1159 1709 
L 1159 0 
L 581 0 
L 581 4863 
z
" transform="scale(0.015625)"/>
      <path id="DejaVuSans-68" d="M 3513 2113 
L 3513 0 
L 2938 0 
L 2938 2094 
Q 2938 2591 2744 2837 
Q 2550 3084 2163 3084 
Q 1697 3084 1428 2787 
Q 1159 2491 1159 1978 
L 1159 0 
L 581 0 
L 581 4863 
L 1159 4863 
L 1159 2956 
Q 1366 3272 1645 3428 
Q 1925 3584 2291 3584 
Q 2894 3584 3203 3211 
Q 3513 2838 3513 2113 
z
" transform="scale(0.015625)"/>
     </defs>
     <use xlink:href="#DejaVuSans-53"/>
     <use xlink:href="#DejaVuSans-44" x="63.476562"/>
     <use xlink:href="#DejaVuSans-47" x="140.478516"/>
     <use xlink:href="#DejaVuSans-38" x="217.96875"/>
     <use xlink:href="#DejaVuSans-3a" x="281.591797"/>
     <use xlink:href="#DejaVuSans-20" x="315.283203"/>
     <use xlink:href="#DejaVuSans-44" x="347.070312"/>
     <use xlink:href="#DejaVuSans-65" x="424.072266"/>
     <use xlink:href="#DejaVuSans-63" x="485.595703"/>
     <use xlink:href="#DejaVuSans-65" x="540.576172"/>
     <use xlink:href="#DejaVuSans-6e" x="602.099609"/>
     <use xlink:href="#DejaVuSans-74" x="665.478516"/>
     <use xlink:href="#DejaVuSans-20" x="704.6875"/>
     <use xlink:href="#DejaVuSans-57" x="736.474609"/>
     <use xlink:href="#DejaVuSans-6f" x="829.476562"/>
     <use xlink:href="#DejaVuSans-72" x="890.658203"/>
     <use xlink:href="#DejaVuSans-6b" x="931.771484"/>
     <use xlink:href="#DejaVuSans-20" x="989.681641"/>
     <use xlink:href="#DejaVuSans-61" x="1021.46875"/>
     <use xlink:href="#DejaVuSans-6e" x="1082.748047"/>
     <use xlink:href="#DejaVuSans-64" x="1146.126953"/>
     <use xlink:href="#DejaVuSans-20" x="1209.603516"/>
     <use xlink:href="#DejaVuSans-45" x="1241.390625"/>
     <use xlink:href="#DejaVuSans-63" x="1304.574219"/>
     <use xlink:href="#DejaVuSans-6f" x="1359.554688"/>
     <use xlink:href="#DejaVuSans-6e" x="1420.736328"/>
     <use xlink:href="#DejaVuSans-6f" x="1484.115234"/>
     <use xlink:href="#DejaVuSans-6d" x="1545.296875"/>
     <use xlink:href="#DejaVuSans-69" x="1642.708984"/>
     <use xlink:href="#DejaVuSans-63" x="1670.492188"/>
     <use xlink:href="#DejaVuSans-20" x="1725.472656"/>
     <use xlink:href="#DejaVuSans-47" x="1757.259766"/>
     <use xlink:href="#DejaVuSans-72" x="1834.75"/>
     <use xlink:href="#DejaVuSans-6f" x="1873.613281"/>
     <use xlink:href="#DejaVuSans-77" x="1934.794922"/>
     <use xlink:href="#DejaVuSans-74" x="2016.582031"/>
     <use xlink:href="#DejaVuSans-68" x="2055.791016"/>
    </g>
   </g>
   <g id="text_11">
    <g id="patch_12">
     <path d="M 126.486186 255.043829 
L 306.278373 255.043829 
L 306.278373 237.365704 
L 126.486186 237.365704 
z
" style="fill: #ffffff; fill-opacity: 0.35; stroke: #ffffff; stroke-opacity: 0.35; stroke-linejoin: miter"/>
    </g>
    <!-- SDG6: Clean Water and Sanitation -->
    <g transform="translate(130.486186 248.964141)scale(0.1 -0.1)">
     <use xlink:href="#DejaVuSans-53"/>
     <use xlink:href="#DejaVuSans-44" x="63.476562"/>
     <use xlink:href="#DejaVuSans-47" x="140.478516"/>
     <use xlink:href="#DejaVuSans-36" x="217.96875"/>
     <use xlink:href="#DejaVuSans-3a" x="281.591797"/>
     <use xlink:href="#DejaVuSans-20" x="315.283203"/>
     <use xlink:href="#DejaVuSans-43" x="347.070312"/>
     <use xlink:href="#DejaVuSans-6c" x="416.894531"/>
     <use xlink:href="#DejaVuSans-65" x="444.677734"/>
     <use xlink:href="#DejaVuSans-61" x="506.201172"/>
     <use xlink:href="#DejaVuSans-6e" x="567.480469"/>
     <use xlink:href="#DejaVuSans-20" x="630.859375"/>
     <use xlink:href="#DejaVuSans-57" x="662.646484"/>
     <use xlink:href="#DejaVuSans-61" x="755.148438"/>
     <use xlink:href="#DejaVuSans-74" x="816.427734"/>
     <use xlink:href="#DejaVuSans-65" x="855.636719"/>
     <use xlink:href="#DejaVuSans-72" x="917.160156"/>
     <use xlink:href="#DejaVuSans-20" x="958.273438"/>
     <use xlink:href="#DejaVuSans-61" x="990.060547"/>
     <use xlink:href="#DejaVuSans-6e" x="1051.339844"/>
     <use xlink:href="#DejaVuSans-64" x="1114.71875"/>
     <use xlink:href="#DejaVuSans-20" x="1178.195312"/>
     <use xlink:href="#DejaVuSans-53" x="1209.982422"/>
     <use xlink:href="#DejaVuSans-61" x="1273.458984"/>
     <use xlink:href="#DejaVuSans-6e" x="1334.738281"/>
     <use xlink:href="#DejaVuSans-69" x="1398.117188"/>
     <use xlink:href="#DejaVuSans-74" x="1425.900391"/>
     <use xlink:href="#DejaVuSans-61" x="1465.109375"/>
     <use xlink:href="#DejaVuSans-74" x="1526.388672"/>
     <use xlink:href="#DejaVuSans-69" x="1565.597656"/>
     <use xlink:href="#DejaVuSans-6f" x="1593.380859"/>
     <use xlink:href="#DejaVuSans-6e" x="1654.5625"/>
    </g>
   </g>
  </g>
 </g>
 <defs>
  <clipPath id="p74430fd96c">
   <rect x="72" y="69.12" width="446.4" height="434.88"/>
  </clipPath>
 </defs>
</svg>
