<?xml version="1.0" encoding="utf-8" standalone="no"?>
<!DOCTYPE svg PUBLIC "-//W3C//DTD SVG 1.1//EN"
  "http://www.w3.org/Graphics/SVG/1.1/DTD/svg11.dtd">
<svg xmlns:xlink="http://www.w3.org/1999/xlink" width="576pt" height="576pt" viewBox="0 0 576 576" xmlns="http://www.w3.org/2000/svg" version="1.1">
 <metadata>
  <rdf:RDF xmlns:dc="http://purl.org/dc/elements/1.1/" xmlns:cc="http://creativecommons.org/ns#" xmlns:rdf="http://www.w3.org/1999/02/22-rdf-syntax-ns#">
   <cc:Work>
    <dc:type rdf:resource="http://purl.org/dc/dcmitype/StillImage"/>
    <dc:date>2022-12-20T16:59:14.206145</dc:date>
    <dc:format>image/svg+xml</dc:format>
    <dc:creator>
     <cc:Agent>
      <dc:title>Matplotlib v3.5.1, https://matplotlib.org/</dc:title>
     </cc:Agent>
    </dc:creator>
   </cc:Work>
  </rdf:RDF>
 </metadata>
 <defs>
  <style type="text/css">*{stroke-linejoin: round; stroke-linecap: butt}</style>
 </defs>
 <g id="figure_1">
  <g id="patch_1">
   <path d="M 0 576 
L 576 576 
L 576 0 
L 0 0 
L 0 576 
z
" style="fill: none"/>
  </g>
  <g id="axes_1">
   <g id="PolyCollection_1">
    <defs>
     <path id="m85c4ffd974" d="M 92.775593 -311.414902 
L 92.290909 -307.733361 
L 92.775593 -304.051821 
L 94.196614 -300.621172 
L 96.457133 -297.675207 
L 279.091727 -113.086593 
L 282.037692 -110.826074 
L 285.468341 -109.405053 
L 289.149882 -108.920369 
L 292.831422 -109.405053 
L 296.262071 -110.826074 
L 490.996902 -257.028148 
L 493.942867 -259.288667 
L 496.203386 -262.234632 
L 497.624407 -265.665281 
L 498.109091 -269.346821 
L 497.624407 -273.028362 
L 496.203386 -276.459011 
L 493.942867 -279.404976 
L 310.58216 -465.793407 
L 307.636194 -468.053926 
L 304.205545 -469.474947 
L 300.524005 -469.959631 
L 296.842465 -469.474947 
L 293.411816 -468.053926 
L 99.403098 -320.052035 
L 96.457133 -317.791516 
L 94.196614 -314.845551 
z
" style="stroke: #1f77b4"/>
    </defs>
    <g clip-path="url(#p1472b6968a)">
     <use xlink:href="#m85c4ffd974" x="0" y="576" style="fill-opacity: 0; stroke: #1f77b4"/>
    </g>
   </g>
   <g id="PolyCollection_2">
    <path d="M 488.626172 306.653179 
L 488.46461 305.425998 
L 487.990937 304.282449 
L 487.23743 303.30046 
L 486.255442 302.546954 
L 485.111892 302.07328 
L 483.884712 301.911719 
L 482.657532 302.07328 
L 481.513982 302.546954 
L 480.531994 303.30046 
L 479.778488 304.282449 
L 479.304814 305.425998 
L 479.143253 306.653179 
L 479.304814 307.880359 
L 479.778488 309.023908 
L 480.531994 310.005897 
L 481.513982 310.759403 
L 482.657532 311.233077 
L 483.884712 311.394638 
L 485.111892 311.233077 
L 486.255442 310.759403 
L 487.23743 310.005897 
L 487.990937 309.023908 
L 488.46461 307.880359 
z
" clip-path="url(#p1472b6968a)"/>
    <path d="M 305.265464 120.264747 
L 305.103903 119.037567 
L 304.630229 117.894018 
L 303.876723 116.912029 
L 302.894735 116.158523 
L 301.751185 115.684849 
L 300.524005 115.523288 
L 299.296825 115.684849 
L 298.153275 116.158523 
L 297.171287 116.912029 
L 296.41778 117.894018 
L 295.944107 119.037567 
L 295.782545 120.264747 
L 295.944107 121.491927 
L 296.41778 122.635477 
L 297.171287 123.617466 
L 298.153275 124.370972 
L 299.296825 124.844646 
L 300.524005 125.006207 
L 301.751185 124.844646 
L 302.894735 124.370972 
L 303.876723 123.617466 
L 304.630229 122.635477 
L 305.103903 121.491927 
z
" clip-path="url(#p1472b6968a)"/>
    <path d="M 293.891341 452.855253 
L 293.72978 451.628073 
L 293.256106 450.484523 
L 292.5026 449.502534 
L 291.520611 448.749028 
L 290.377062 448.275354 
L 289.149882 448.113793 
L 287.922701 448.275354 
L 286.779152 448.749028 
L 285.797163 449.502534 
L 285.043657 450.484523 
L 284.569983 451.628073 
L 284.408422 452.855253 
L 284.569983 454.082433 
L 285.043657 455.225982 
L 285.797163 456.207971 
L 286.779152 456.961477 
L 287.922701 457.435151 
L 289.149882 457.596712 
L 290.377062 457.435151 
L 291.520611 456.961477 
L 292.5026 456.207971 
L 293.256106 455.225982 
L 293.72978 454.082433 
z
" clip-path="url(#p1472b6968a)"/>
    <path d="M 111.256747 268.266639 
L 111.095186 267.039458 
L 110.621512 265.895909 
L 109.868006 264.91392 
L 108.886018 264.160414 
L 107.742468 263.68674 
L 106.515288 263.525179 
L 105.288108 263.68674 
L 104.144558 264.160414 
L 103.16257 264.91392 
L 102.409063 265.895909 
L 101.93539 267.039458 
L 101.773828 268.266639 
L 101.93539 269.493819 
L 102.409063 270.637368 
L 103.16257 271.619357 
L 104.144558 272.372863 
L 105.288108 272.846537 
L 106.515288 273.008098 
L 107.742468 272.846537 
L 108.886018 272.372863 
L 109.868006 271.619357 
L 110.621512 270.637368 
L 111.095186 269.493819 
z
" clip-path="url(#p1472b6968a)"/>
   </g>
   <g id="text_1">
    <g id="patch_2">
     <path d="M 489.626172 315.492241 
L 586.918359 315.492241 
L 586.918359 297.814116 
L 489.626172 297.814116 
z
" style="fill: #ffffff; fill-opacity: 0.35; stroke: #ffffff; stroke-opacity: 0.35; stroke-linejoin: miter"/>
    </g>
    <!-- SDG1: No Poverty -->
    <g transform="translate(493.626172 309.412554)scale(0.1 -0.1)">
     <defs>
      <path id="DejaVuSans-53" d="M 3425 4513 
L 3425 3897 
Q 3066 4069 2747 4153 
Q 2428 4238 2131 4238 
Q 1616 4238 1336 4038 
Q 1056 3838 1056 3469 
Q 1056 3159 1242 3001 
Q 1428 2844 1947 2747 
L 2328 2669 
Q 3034 2534 3370 2195 
Q 3706 1856 3706 1288 
Q 3706 609 3251 259 
Q 2797 -91 1919 -91 
Q 1588 -91 1214 -16 
Q 841 59 441 206 
L 441 856 
Q 825 641 1194 531 
Q 1563 422 1919 422 
Q 2459 422 2753 634 
Q 3047 847 3047 1241 
Q 3047 1584 2836 1778 
Q 2625 1972 2144 2069 
L 1759 2144 
Q 1053 2284 737 2584 
Q 422 2884 422 3419 
Q 422 4038 858 4394 
Q 1294 4750 2059 4750 
Q 2388 4750 2728 4690 
Q 3069 4631 3425 4513 
z
" transform="scale(0.015625)"/>
      <path id="DejaVuSans-44" d="M 1259 4147 
L 1259 519 
L 2022 519 
Q 2988 519 3436 956 
Q 3884 1394 3884 2338 
Q 3884 3275 3436 3711 
Q 2988 4147 2022 4147 
L 1259 4147 
z
M 628 4666 
L 1925 4666 
Q 3281 4666 3915 4102 
Q 4550 3538 4550 2338 
Q 4550 1131 3912 565 
Q 3275 0 1925 0 
L 628 0 
L 628 4666 
z
" transform="scale(0.015625)"/>
      <path id="DejaVuSans-47" d="M 3809 666 
L 3809 1919 
L 2778 1919 
L 2778 2438 
L 4434 2438 
L 4434 434 
Q 4069 175 3628 42 
Q 3188 -91 2688 -91 
Q 1594 -91 976 548 
Q 359 1188 359 2328 
Q 359 3472 976 4111 
Q 1594 4750 2688 4750 
Q 3144 4750 3555 4637 
Q 3966 4525 4313 4306 
L 4313 3634 
Q 3963 3931 3569 4081 
Q 3175 4231 2741 4231 
Q 1884 4231 1454 3753 
Q 1025 3275 1025 2328 
Q 1025 1384 1454 906 
Q 1884 428 2741 428 
Q 3075 428 3337 486 
Q 3600 544 3809 666 
z
" transform="scale(0.015625)"/>
      <path id="DejaVuSans-31" d="M 794 531 
L 1825 531 
L 1825 4091 
L 703 3866 
L 703 4441 
L 1819 4666 
L 2450 4666 
L 2450 531 
L 3481 531 
L 3481 0 
L 794 0 
L 794 531 
z
" transform="scale(0.015625)"/>
      <path id="DejaVuSans-3a" d="M 750 794 
L 1409 794 
L 1409 0 
L 750 0 
L 750 794 
z
M 750 3309 
L 1409 3309 
L 1409 2516 
L 750 2516 
L 750 3309 
z
" transform="scale(0.015625)"/>
      <path id="DejaVuSans-20" transform="scale(0.015625)"/>
      <path id="DejaVuSans-4e" d="M 628 4666 
L 1478 4666 
L 3547 763 
L 3547 4666 
L 4159 4666 
L 4159 0 
L 3309 0 
L 1241 3903 
L 1241 0 
L 628 0 
L 628 4666 
z
" transform="scale(0.015625)"/>
      <path id="DejaVuSans-6f" d="M 1959 3097 
Q 1497 3097 1228 2736 
Q 959 2375 959 1747 
Q 959 1119 1226 758 
Q 1494 397 1959 397 
Q 2419 397 2687 759 
Q 2956 1122 2956 1747 
Q 2956 2369 2687 2733 
Q 2419 3097 1959 3097 
z
M 1959 3584 
Q 2709 3584 3137 3096 
Q 3566 2609 3566 1747 
Q 3566 888 3137 398 
Q 2709 -91 1959 -91 
Q 1206 -91 779 398 
Q 353 888 353 1747 
Q 353 2609 779 3096 
Q 1206 3584 1959 3584 
z
" transform="scale(0.015625)"/>
      <path id="DejaVuSans-50" d="M 1259 4147 
L 1259 2394 
L 2053 2394 
Q 2494 2394 2734 2622 
Q 2975 2850 2975 3272 
Q 2975 3691 2734 3919 
Q 2494 4147 2053 4147 
L 1259 4147 
z
M 628 4666 
L 2053 4666 
Q 2838 4666 3239 4311 
Q 3641 3956 3641 3272 
Q 3641 2581 3239 2228 
Q 2838 1875 2053 1875 
L 1259 1875 
L 1259 0 
L 628 0 
L 628 4666 
z
" transform="scale(0.015625)"/>
      <path id="DejaVuSans-76" d="M 191 3500 
L 800 3500 
L 1894 563 
L 2988 3500 
L 3597 3500 
L 2284 0 
L 1503 0 
L 191 3500 
z
" transform="scale(0.015625)"/>
      <path id="DejaVuSans-65" d="M 3597 1894 
L 3597 1613 
L 953 1613 
Q 991 1019 1311 708 
Q 1631 397 2203 397 
Q 2534 397 2845 478 
Q 3156 559 3463 722 
L 3463 178 
Q 3153 47 2828 -22 
Q 2503 -91 2169 -91 
Q 1331 -91 842 396 
Q 353 884 353 1716 
Q 353 2575 817 3079 
Q 1281 3584 2069 3584 
Q 2775 3584 3186 3129 
Q 3597 2675 3597 1894 
z
M 3022 2063 
Q 3016 2534 2758 2815 
Q 2500 3097 2075 3097 
Q 1594 3097 1305 2825 
Q 1016 2553 972 2059 
L 3022 2063 
z
" transform="scale(0.015625)"/>
      <path id="DejaVuSans-72" d="M 2631 2963 
Q 2534 3019 2420 3045 
Q 2306 3072 2169 3072 
Q 1681 3072 1420 2755 
Q 1159 2438 1159 1844 
L 1159 0 
L 581 0 
L 581 3500 
L 1159 3500 
L 1159 2956 
Q 1341 3275 1631 3429 
Q 1922 3584 2338 3584 
Q 2397 3584 2469 3576 
Q 2541 3569 2628 3553 
L 2631 2963 
z
" transform="scale(0.015625)"/>
      <path id="DejaVuSans-74" d="M 1172 4494 
L 1172 3500 
L 2356 3500 
L 2356 3053 
L 1172 3053 
L 1172 1153 
Q 1172 725 1289 603 
Q 1406 481 1766 481 
L 2356 481 
L 2356 0 
L 1766 0 
Q 1100 0 847 248 
Q 594 497 594 1153 
L 594 3053 
L 172 3053 
L 172 3500 
L 594 3500 
L 594 4494 
L 1172 4494 
z
" transform="scale(0.015625)"/>
      <path id="DejaVuSans-79" d="M 2059 -325 
Q 1816 -950 1584 -1140 
Q 1353 -1331 966 -1331 
L 506 -1331 
L 506 -850 
L 844 -850 
Q 1081 -850 1212 -737 
Q 1344 -625 1503 -206 
L 1606 56 
L 191 3500 
L 800 3500 
L 1894 763 
L 2988 3500 
L 3597 3500 
L 2059 -325 
z
" transform="scale(0.015625)"/>
     </defs>
     <use xlink:href="#DejaVuSans-53"/>
     <use xlink:href="#DejaVuSans-44" x="63.476562"/>
     <use xlink:href="#DejaVuSans-47" x="140.478516"/>
     <use xlink:href="#DejaVuSans-31" x="217.96875"/>
     <use xlink:href="#DejaVuSans-3a" x="281.591797"/>
     <use xlink:href="#DejaVuSans-20" x="315.283203"/>
     <use xlink:href="#DejaVuSans-4e" x="347.070312"/>
     <use xlink:href="#DejaVuSans-6f" x="421.875"/>
     <use xlink:href="#DejaVuSans-20" x="483.056641"/>
     <use xlink:href="#DejaVuSans-50" x="514.84375"/>
     <use xlink:href="#DejaVuSans-6f" x="571.521484"/>
     <use xlink:href="#DejaVuSans-76" x="632.703125"/>
     <use xlink:href="#DejaVuSans-65" x="691.882812"/>
     <use xlink:href="#DejaVuSans-72" x="753.40625"/>
     <use xlink:href="#DejaVuSans-74" x="794.519531"/>
     <use xlink:href="#DejaVuSans-79" x="833.728516"/>
    </g>
   </g>
   <g id="text_2">
    <g id="patch_3">
     <path d="M 306.265464 129.10381 
L 429.529527 129.10381 
L 429.529527 111.425685 
L 306.265464 111.425685 
z
" style="fill: #ffffff; fill-opacity: 0.35; stroke: #ffffff; stroke-opacity: 0.35; stroke-linejoin: miter"/>
    </g>
    <!-- SDG5: Gender Equality -->
    <g transform="translate(310.265464 123.024122)scale(0.1 -0.1)">
     <defs>
      <path id="DejaVuSans-35" d="M 691 4666 
L 3169 4666 
L 3169 4134 
L 1269 4134 
L 1269 2991 
Q 1406 3038 1543 3061 
Q 1681 3084 1819 3084 
Q 2600 3084 3056 2656 
Q 3513 2228 3513 1497 
Q 3513 744 3044 326 
Q 2575 -91 1722 -91 
Q 1428 -91 1123 -41 
Q 819 9 494 109 
L 494 744 
Q 775 591 1075 516 
Q 1375 441 1709 441 
Q 2250 441 2565 725 
Q 2881 1009 2881 1497 
Q 2881 1984 2565 2268 
Q 2250 2553 1709 2553 
Q 1456 2553 1204 2497 
Q 953 2441 691 2322 
L 691 4666 
z
" transform="scale(0.015625)"/>
      <path id="DejaVuSans-6e" d="M 3513 2113 
L 3513 0 
L 2938 0 
L 2938 2094 
Q 2938 2591 2744 2837 
Q 2550 3084 2163 3084 
Q 1697 3084 1428 2787 
Q 1159 2491 1159 1978 
L 1159 0 
L 581 0 
L 581 3500 
L 1159 3500 
L 1159 2956 
Q 1366 3272 1645 3428 
Q 1925 3584 2291 3584 
Q 2894 3584 3203 3211 
Q 3513 2838 3513 2113 
z
" transform="scale(0.015625)"/>
      <path id="DejaVuSans-64" d="M 2906 2969 
L 2906 4863 
L 3481 4863 
L 3481 0 
L 2906 0 
L 2906 525 
Q 2725 213 2448 61 
Q 2172 -91 1784 -91 
Q 1150 -91 751 415 
Q 353 922 353 1747 
Q 353 2572 751 3078 
Q 1150 3584 1784 3584 
Q 2172 3584 2448 3432 
Q 2725 3281 2906 2969 
z
M 947 1747 
Q 947 1113 1208 752 
Q 1469 391 1925 391 
Q 2381 391 2643 752 
Q 2906 1113 2906 1747 
Q 2906 2381 2643 2742 
Q 2381 3103 1925 3103 
Q 1469 3103 1208 2742 
Q 947 2381 947 1747 
z
" transform="scale(0.015625)"/>
      <path id="DejaVuSans-45" d="M 628 4666 
L 3578 4666 
L 3578 4134 
L 1259 4134 
L 1259 2753 
L 3481 2753 
L 3481 2222 
L 1259 2222 
L 1259 531 
L 3634 531 
L 3634 0 
L 628 0 
L 628 4666 
z
" transform="scale(0.015625)"/>
      <path id="DejaVuSans-71" d="M 947 1747 
Q 947 1113 1208 752 
Q 1469 391 1925 391 
Q 2381 391 2643 752 
Q 2906 1113 2906 1747 
Q 2906 2381 2643 2742 
Q 2381 3103 1925 3103 
Q 1469 3103 1208 2742 
Q 947 2381 947 1747 
z
M 2906 525 
Q 2725 213 2448 61 
Q 2172 -91 1784 -91 
Q 1150 -91 751 415 
Q 353 922 353 1747 
Q 353 2572 751 3078 
Q 1150 3584 1784 3584 
Q 2172 3584 2448 3432 
Q 2725 3281 2906 2969 
L 2906 3500 
L 3481 3500 
L 3481 -1331 
L 2906 -1331 
L 2906 525 
z
" transform="scale(0.015625)"/>
      <path id="DejaVuSans-75" d="M 544 1381 
L 544 3500 
L 1119 3500 
L 1119 1403 
Q 1119 906 1312 657 
Q 1506 409 1894 409 
Q 2359 409 2629 706 
Q 2900 1003 2900 1516 
L 2900 3500 
L 3475 3500 
L 3475 0 
L 2900 0 
L 2900 538 
Q 2691 219 2414 64 
Q 2138 -91 1772 -91 
Q 1169 -91 856 284 
Q 544 659 544 1381 
z
M 1991 3584 
L 1991 3584 
z
" transform="scale(0.015625)"/>
      <path id="DejaVuSans-61" d="M 2194 1759 
Q 1497 1759 1228 1600 
Q 959 1441 959 1056 
Q 959 750 1161 570 
Q 1363 391 1709 391 
Q 2188 391 2477 730 
Q 2766 1069 2766 1631 
L 2766 1759 
L 2194 1759 
z
M 3341 1997 
L 3341 0 
L 2766 0 
L 2766 531 
Q 2569 213 2275 61 
Q 1981 -91 1556 -91 
Q 1019 -91 701 211 
Q 384 513 384 1019 
Q 384 1609 779 1909 
Q 1175 2209 1959 2209 
L 2766 2209 
L 2766 2266 
Q 2766 2663 2505 2880 
Q 2244 3097 1772 3097 
Q 1472 3097 1187 3025 
Q 903 2953 641 2809 
L 641 3341 
Q 956 3463 1253 3523 
Q 1550 3584 1831 3584 
Q 2591 3584 2966 3190 
Q 3341 2797 3341 1997 
z
" transform="scale(0.015625)"/>
      <path id="DejaVuSans-6c" d="M 603 4863 
L 1178 4863 
L 1178 0 
L 603 0 
L 603 4863 
z
" transform="scale(0.015625)"/>
      <path id="DejaVuSans-69" d="M 603 3500 
L 1178 3500 
L 1178 0 
L 603 0 
L 603 3500 
z
M 603 4863 
L 1178 4863 
L 1178 4134 
L 603 4134 
L 603 4863 
z
" transform="scale(0.015625)"/>
     </defs>
     <use xlink:href="#DejaVuSans-53"/>
     <use xlink:href="#DejaVuSans-44" x="63.476562"/>
     <use xlink:href="#DejaVuSans-47" x="140.478516"/>
     <use xlink:href="#DejaVuSans-35" x="217.96875"/>
     <use xlink:href="#DejaVuSans-3a" x="281.591797"/>
     <use xlink:href="#DejaVuSans-20" x="315.283203"/>
     <use xlink:href="#DejaVuSans-47" x="347.070312"/>
     <use xlink:href="#DejaVuSans-65" x="424.560547"/>
     <use xlink:href="#DejaVuSans-6e" x="486.083984"/>
     <use xlink:href="#DejaVuSans-64" x="549.462891"/>
     <use xlink:href="#DejaVuSans-65" x="612.939453"/>
     <use xlink:href="#DejaVuSans-72" x="674.462891"/>
     <use xlink:href="#DejaVuSans-20" x="715.576172"/>
     <use xlink:href="#DejaVuSans-45" x="747.363281"/>
     <use xlink:href="#DejaVuSans-71" x="810.546875"/>
     <use xlink:href="#DejaVuSans-75" x="874.023438"/>
     <use xlink:href="#DejaVuSans-61" x="937.402344"/>
     <use xlink:href="#DejaVuSans-6c" x="998.681641"/>
     <use xlink:href="#DejaVuSans-69" x="1026.464844"/>
     <use xlink:href="#DejaVuSans-74" x="1054.248047"/>
     <use xlink:href="#DejaVuSans-79" x="1093.457031"/>
    </g>
   </g>
   <g id="text_3">
    <g id="patch_4">
     <path d="M 294.891341 461.694315 
L 416.938216 461.694315 
L 416.938216 444.01619 
L 294.891341 444.01619 
z
" style="fill: #ffffff; fill-opacity: 0.35; stroke: #ffffff; stroke-opacity: 0.35; stroke-linejoin: miter"/>
    </g>
    <!-- SDG13: Climate Action -->
    <g transform="translate(298.891341 455.614628)scale(0.1 -0.1)">
     <defs>
      <path id="DejaVuSans-33" d="M 2597 2516 
Q 3050 2419 3304 2112 
Q 3559 1806 3559 1356 
Q 3559 666 3084 287 
Q 2609 -91 1734 -91 
Q 1441 -91 1130 -33 
Q 819 25 488 141 
L 488 750 
Q 750 597 1062 519 
Q 1375 441 1716 441 
Q 2309 441 2620 675 
Q 2931 909 2931 1356 
Q 2931 1769 2642 2001 
Q 2353 2234 1838 2234 
L 1294 2234 
L 1294 2753 
L 1863 2753 
Q 2328 2753 2575 2939 
Q 2822 3125 2822 3475 
Q 2822 3834 2567 4026 
Q 2313 4219 1838 4219 
Q 1578 4219 1281 4162 
Q 984 4106 628 3988 
L 628 4550 
Q 988 4650 1302 4700 
Q 1616 4750 1894 4750 
Q 2613 4750 3031 4423 
Q 3450 4097 3450 3541 
Q 3450 3153 3228 2886 
Q 3006 2619 2597 2516 
z
" transform="scale(0.015625)"/>
      <path id="DejaVuSans-43" d="M 4122 4306 
L 4122 3641 
Q 3803 3938 3442 4084 
Q 3081 4231 2675 4231 
Q 1875 4231 1450 3742 
Q 1025 3253 1025 2328 
Q 1025 1406 1450 917 
Q 1875 428 2675 428 
Q 3081 428 3442 575 
Q 3803 722 4122 1019 
L 4122 359 
Q 3791 134 3420 21 
Q 3050 -91 2638 -91 
Q 1578 -91 968 557 
Q 359 1206 359 2328 
Q 359 3453 968 4101 
Q 1578 4750 2638 4750 
Q 3056 4750 3426 4639 
Q 3797 4528 4122 4306 
z
" transform="scale(0.015625)"/>
      <path id="DejaVuSans-6d" d="M 3328 2828 
Q 3544 3216 3844 3400 
Q 4144 3584 4550 3584 
Q 5097 3584 5394 3201 
Q 5691 2819 5691 2113 
L 5691 0 
L 5113 0 
L 5113 2094 
Q 5113 2597 4934 2840 
Q 4756 3084 4391 3084 
Q 3944 3084 3684 2787 
Q 3425 2491 3425 1978 
L 3425 0 
L 2847 0 
L 2847 2094 
Q 2847 2600 2669 2842 
Q 2491 3084 2119 3084 
Q 1678 3084 1418 2786 
Q 1159 2488 1159 1978 
L 1159 0 
L 581 0 
L 581 3500 
L 1159 3500 
L 1159 2956 
Q 1356 3278 1631 3431 
Q 1906 3584 2284 3584 
Q 2666 3584 2933 3390 
Q 3200 3197 3328 2828 
z
" transform="scale(0.015625)"/>
      <path id="DejaVuSans-41" d="M 2188 4044 
L 1331 1722 
L 3047 1722 
L 2188 4044 
z
M 1831 4666 
L 2547 4666 
L 4325 0 
L 3669 0 
L 3244 1197 
L 1141 1197 
L 716 0 
L 50 0 
L 1831 4666 
z
" transform="scale(0.015625)"/>
      <path id="DejaVuSans-63" d="M 3122 3366 
L 3122 2828 
Q 2878 2963 2633 3030 
Q 2388 3097 2138 3097 
Q 1578 3097 1268 2742 
Q 959 2388 959 1747 
Q 959 1106 1268 751 
Q 1578 397 2138 397 
Q 2388 397 2633 464 
Q 2878 531 3122 666 
L 3122 134 
Q 2881 22 2623 -34 
Q 2366 -91 2075 -91 
Q 1284 -91 818 406 
Q 353 903 353 1747 
Q 353 2603 823 3093 
Q 1294 3584 2113 3584 
Q 2378 3584 2631 3529 
Q 2884 3475 3122 3366 
z
" transform="scale(0.015625)"/>
     </defs>
     <use xlink:href="#DejaVuSans-53"/>
     <use xlink:href="#DejaVuSans-44" x="63.476562"/>
     <use xlink:href="#DejaVuSans-47" x="140.478516"/>
     <use xlink:href="#DejaVuSans-31" x="217.96875"/>
     <use xlink:href="#DejaVuSans-33" x="281.591797"/>
     <use xlink:href="#DejaVuSans-3a" x="345.214844"/>
     <use xlink:href="#DejaVuSans-20" x="378.90625"/>
     <use xlink:href="#DejaVuSans-43" x="410.693359"/>
     <use xlink:href="#DejaVuSans-6c" x="480.517578"/>
     <use xlink:href="#DejaVuSans-69" x="508.300781"/>
     <use xlink:href="#DejaVuSans-6d" x="536.083984"/>
     <use xlink:href="#DejaVuSans-61" x="633.496094"/>
     <use xlink:href="#DejaVuSans-74" x="694.775391"/>
     <use xlink:href="#DejaVuSans-65" x="733.984375"/>
     <use xlink:href="#DejaVuSans-20" x="795.507812"/>
     <use xlink:href="#DejaVuSans-41" x="827.294922"/>
     <use xlink:href="#DejaVuSans-63" x="893.953125"/>
     <use xlink:href="#DejaVuSans-74" x="948.933594"/>
     <use xlink:href="#DejaVuSans-69" x="988.142578"/>
     <use xlink:href="#DejaVuSans-6f" x="1015.925781"/>
     <use xlink:href="#DejaVuSans-6e" x="1077.107422"/>
    </g>
   </g>
   <g id="text_4">
    <g id="patch_5">
     <path d="M 112.256747 277.105701 
L 245.356747 277.105701 
L 245.356747 259.427576 
L 112.256747 259.427576 
z
" style="fill: #ffffff; fill-opacity: 0.35; stroke: #ffffff; stroke-opacity: 0.35; stroke-linejoin: miter"/>
    </g>
    <!-- SDG14: Life Below Water -->
    <g transform="translate(116.256747 271.026014)scale(0.1 -0.1)">
     <defs>
      <path id="DejaVuSans-34" d="M 2419 4116 
L 825 1625 
L 2419 1625 
L 2419 4116 
z
M 2253 4666 
L 3047 4666 
L 3047 1625 
L 3713 1625 
L 3713 1100 
L 3047 1100 
L 3047 0 
L 2419 0 
L 2419 1100 
L 313 1100 
L 313 1709 
L 2253 4666 
z
" transform="scale(0.015625)"/>
      <path id="DejaVuSans-4c" d="M 628 4666 
L 1259 4666 
L 1259 531 
L 3531 531 
L 3531 0 
L 628 0 
L 628 4666 
z
" transform="scale(0.015625)"/>
      <path id="DejaVuSans-66" d="M 2375 4863 
L 2375 4384 
L 1825 4384 
Q 1516 4384 1395 4259 
Q 1275 4134 1275 3809 
L 1275 3500 
L 2222 3500 
L 2222 3053 
L 1275 3053 
L 1275 0 
L 697 0 
L 697 3053 
L 147 3053 
L 147 3500 
L 697 3500 
L 697 3744 
Q 697 4328 969 4595 
Q 1241 4863 1831 4863 
L 2375 4863 
z
" transform="scale(0.015625)"/>
      <path id="DejaVuSans-42" d="M 1259 2228 
L 1259 519 
L 2272 519 
Q 2781 519 3026 730 
Q 3272 941 3272 1375 
Q 3272 1813 3026 2020 
Q 2781 2228 2272 2228 
L 1259 2228 
z
M 1259 4147 
L 1259 2741 
L 2194 2741 
Q 2656 2741 2882 2914 
Q 3109 3088 3109 3444 
Q 3109 3797 2882 3972 
Q 2656 4147 2194 4147 
L 1259 4147 
z
M 628 4666 
L 2241 4666 
Q 2963 4666 3353 4366 
Q 3744 4066 3744 3513 
Q 3744 3084 3544 2831 
Q 3344 2578 2956 2516 
Q 3422 2416 3680 2098 
Q 3938 1781 3938 1306 
Q 3938 681 3513 340 
Q 3088 0 2303 0 
L 628 0 
L 628 4666 
z
" transform="scale(0.015625)"/>
      <path id="DejaVuSans-77" d="M 269 3500 
L 844 3500 
L 1563 769 
L 2278 3500 
L 2956 3500 
L 3675 769 
L 4391 3500 
L 4966 3500 
L 4050 0 
L 3372 0 
L 2619 2869 
L 1863 0 
L 1184 0 
L 269 3500 
z
" transform="scale(0.015625)"/>
      <path id="DejaVuSans-57" d="M 213 4666 
L 850 4666 
L 1831 722 
L 2809 4666 
L 3519 4666 
L 4500 722 
L 5478 4666 
L 6119 4666 
L 4947 0 
L 4153 0 
L 3169 4050 
L 2175 0 
L 1381 0 
L 213 4666 
z
" transform="scale(0.015625)"/>
     </defs>
     <use xlink:href="#DejaVuSans-53"/>
     <use xlink:href="#DejaVuSans-44" x="63.476562"/>
     <use xlink:href="#DejaVuSans-47" x="140.478516"/>
     <use xlink:href="#DejaVuSans-31" x="217.96875"/>
     <use xlink:href="#DejaVuSans-34" x="281.591797"/>
     <use xlink:href="#DejaVuSans-3a" x="345.214844"/>
     <use xlink:href="#DejaVuSans-20" x="378.90625"/>
     <use xlink:href="#DejaVuSans-4c" x="410.693359"/>
     <use xlink:href="#DejaVuSans-69" x="466.40625"/>
     <use xlink:href="#DejaVuSans-66" x="494.189453"/>
     <use xlink:href="#DejaVuSans-65" x="529.394531"/>
     <use xlink:href="#DejaVuSans-20" x="590.917969"/>
     <use xlink:href="#DejaVuSans-42" x="622.705078"/>
     <use xlink:href="#DejaVuSans-65" x="691.308594"/>
     <use xlink:href="#DejaVuSans-6c" x="752.832031"/>
     <use xlink:href="#DejaVuSans-6f" x="780.615234"/>
     <use xlink:href="#DejaVuSans-77" x="841.796875"/>
     <use xlink:href="#DejaVuSans-20" x="923.583984"/>
     <use xlink:href="#DejaVuSans-57" x="955.371094"/>
     <use xlink:href="#DejaVuSans-61" x="1047.873047"/>
     <use xlink:href="#DejaVuSans-74" x="1109.152344"/>
     <use xlink:href="#DejaVuSans-65" x="1148.361328"/>
     <use xlink:href="#DejaVuSans-72" x="1209.884766"/>
    </g>
   </g>
  </g>
 </g>
 <defs>
  <clipPath id="p1472b6968a">
   <rect x="72" y="69.12" width="446.4" height="434.88"/>
  </clipPath>
 </defs>
</svg>
